<svg width="67" height="47" viewBox="0 0 67 47" fill="none" xmlns="http://www.w3.org/2000/svg">
<path d="M19.8136 46.1932C15.8505 46.179 12.4272 45.2628 9.54368 43.4446C6.66016 41.6264 4.43715 39.0057 2.87464 35.5824C1.31214 32.1591 0.537997 28.054 0.552202 23.267C0.566406 18.4659 1.34766 14.3892 2.89595 11.0369C4.45845 7.68466 6.67436 5.13494 9.54368 3.38778C12.4272 1.64062 15.8505 0.767044 19.8136 0.767044C23.7766 0.767044 27.1999 1.64773 30.0835 3.40909C32.967 5.15625 35.19 7.70596 36.7525 11.0582C38.315 14.4105 39.0891 18.4801 39.0749 23.267C39.0749 28.0824 38.2937 32.2017 36.7312 35.625C35.1687 39.0483 32.9457 41.669 30.0621 43.4872C27.1928 45.2912 23.7766 46.1932 19.8136 46.1932ZM19.8136 36.5625C21.859 36.5625 23.5352 35.4972 24.842 33.3665C26.163 31.2216 26.8164 27.8551 26.8022 23.267C26.8022 20.2699 26.5039 17.8196 25.9073 15.9162C25.3107 14.0128 24.4869 12.6065 23.4357 11.6974C22.3846 10.7741 21.1772 10.3125 19.8136 10.3125C17.7681 10.3125 16.0991 11.3494 14.8065 13.4233C13.5138 15.4972 12.8533 18.7784 12.8249 23.267C12.8107 26.321 13.1019 28.8352 13.6985 30.8097C14.2951 32.7699 15.119 34.2188 16.1701 35.1562C17.2354 36.0938 18.4499 36.5625 19.8136 36.5625ZM66.0281 1.36364V45H54.1815V12.2727H53.9258L44.3803 17.983V7.92614L55.119 1.36364H66.0281Z" fill="#29B3F1"/>
</svg>
