<svg width="78" height="47" viewBox="0 0 78 47" fill="none" xmlns="http://www.w3.org/2000/svg">
<path d="M19.5948 46.1932C15.6317 46.179 12.2085 45.2628 9.32493 43.4446C6.44141 41.6264 4.2184 39.0057 2.65589 35.5824C1.09339 32.1591 0.319247 28.054 0.333452 23.267C0.347656 18.4659 1.12891 14.3892 2.6772 11.0369C4.2397 7.68466 6.45561 5.13494 9.32493 3.38778C12.2085 1.64062 15.6317 0.767044 19.5948 0.767044C23.5579 0.767044 26.9812 1.64773 29.8647 3.40909C32.7482 5.15625 34.9712 7.70596 36.5337 11.0582C38.0962 14.4105 38.8704 18.4801 38.8562 23.267C38.8562 28.0824 38.0749 32.2017 36.5124 35.625C34.9499 39.0483 32.7269 41.669 29.8434 43.4872C26.9741 45.2912 23.5579 46.1932 19.5948 46.1932ZM19.5948 36.5625C21.6403 36.5625 23.3164 35.4972 24.6232 33.3665C25.9442 31.2216 26.5977 27.8551 26.5835 23.267C26.5835 20.2699 26.2852 17.8196 25.6886 15.9162C25.092 14.0128 24.2681 12.6065 23.217 11.6974C22.1658 10.7741 20.9585 10.3125 19.5948 10.3125C17.5494 10.3125 15.8803 11.3494 14.5877 13.4233C13.2951 15.4972 12.6346 18.7784 12.6062 23.267C12.592 26.321 12.8832 28.8352 13.4798 30.8097C14.0764 32.7699 14.9002 34.2188 15.9514 35.1562C17.0167 36.0938 18.2312 36.5625 19.5948 36.5625ZM44.4173 45V36.4773L60.6957 23.0114C61.7752 22.1165 62.6985 21.2784 63.4656 20.4972C64.2468 19.7017 64.8434 18.8849 65.2553 18.0469C65.6815 17.2088 65.8945 16.2784 65.8945 15.2557C65.8945 14.1335 65.6531 13.1747 65.1701 12.3793C64.7014 11.5838 64.0479 10.973 63.2099 10.5469C62.3718 10.1065 61.4059 9.88636 60.3121 9.88636C59.2184 9.88636 58.2525 10.1065 57.4144 10.5469C56.5906 10.9872 55.9513 11.6335 55.4968 12.4858C55.0423 13.3381 54.815 14.375 54.815 15.5966H43.565C43.565 12.5284 44.2539 9.88636 45.6317 7.67045C47.0096 5.45455 48.9556 3.75 51.4698 2.55682C53.984 1.36364 56.9315 0.767044 60.3121 0.767044C63.8065 0.767044 66.832 1.32812 69.3889 2.45028C71.9599 3.55824 73.9414 5.12074 75.3335 7.13778C76.7397 9.15483 77.4428 11.5199 77.4428 14.233C77.4428 15.9091 77.0948 17.5781 76.3988 19.2401C75.7028 20.8878 74.4528 22.7131 72.6488 24.7159C70.8448 26.7188 68.2809 29.1051 64.957 31.875L60.8661 35.2841V35.5398H77.9116V45H44.4173Z" fill="#29B3F1"/>
</svg>
