<svg width="80" height="47" viewBox="0 0 80 47" fill="none" xmlns="http://www.w3.org/2000/svg">
<path d="M19.7452 46.1932C15.7821 46.179 12.3588 45.2628 9.47532 43.4446C6.5918 41.6264 4.36879 39.0057 2.80629 35.5824C1.24379 32.1591 0.469638 28.054 0.483842 23.267C0.498047 18.4659 1.2793 14.3892 2.82759 11.0369C4.39009 7.68466 6.606 5.13494 9.47532 3.38778C12.3588 1.64062 15.7821 0.767044 19.7452 0.767044C23.7083 0.767044 27.1316 1.64773 30.0151 3.40909C32.8986 5.15625 35.1216 7.70596 36.6841 11.0582C38.2466 14.4105 39.0208 18.4801 39.0066 23.267C39.0066 28.0824 38.2253 32.2017 36.6628 35.625C35.1003 39.0483 32.8773 41.669 29.9938 43.4872C27.1245 45.2912 23.7083 46.1932 19.7452 46.1932ZM19.7452 36.5625C21.7907 36.5625 23.4668 35.4972 24.7736 33.3665C26.0946 31.2216 26.748 27.8551 26.7338 23.267C26.7338 20.2699 26.4355 17.8196 25.839 15.9162C25.2424 14.0128 24.4185 12.6065 23.3674 11.6974C22.3162 10.7741 21.1088 10.3125 19.7452 10.3125C17.6998 10.3125 16.0307 11.3494 14.7381 13.4233C13.4455 15.4972 12.785 18.7784 12.7566 23.267C12.7424 26.321 13.0336 28.8352 13.6301 30.8097C14.2267 32.7699 15.0506 34.2188 16.1017 35.1562C17.1671 36.0938 18.3816 36.5625 19.7452 36.5625ZM61.6131 45.5966C58.1756 45.5966 55.1216 45.0071 52.4512 43.8281C49.7949 42.6349 47.7069 40.9943 46.187 38.9062C44.6671 36.8182 43.9 34.4176 43.8858 31.7045H55.8176C55.8319 32.5426 56.0875 33.2955 56.5847 33.9631C57.0961 34.6165 57.7921 35.1278 58.6728 35.4972C59.5534 35.8665 60.562 36.0511 61.6983 36.0511C62.7921 36.0511 63.758 35.8594 64.5961 35.4759C65.4341 35.0781 66.0875 34.5312 66.5563 33.8352C67.025 33.1392 67.2523 32.3437 67.2381 31.4489C67.2523 30.5682 66.9824 29.7869 66.4284 29.1051C65.8887 28.4233 65.1287 27.8906 64.1486 27.5071C63.1685 27.1236 62.0392 26.9318 60.7608 26.9318H56.329V18.75H60.7608C61.9398 18.75 62.9767 18.5582 63.8716 18.1747C64.7807 17.7912 65.4838 17.2585 65.981 16.5767C66.4924 15.8949 66.7409 15.1136 66.7267 14.233C66.7409 13.3807 66.535 12.6278 66.1088 11.9744C65.6827 11.321 65.0861 10.8097 64.3191 10.4403C63.5662 10.071 62.6926 9.88636 61.6983 9.88636C60.6188 9.88636 59.6529 10.0781 58.8006 10.4616C57.9625 10.8452 57.302 11.3778 56.8191 12.0597C56.3361 12.7415 56.0875 13.5227 56.0733 14.4034H44.7381C44.7523 11.733 45.4838 9.375 46.9327 7.32954C48.3958 5.28409 50.3986 3.67898 52.9412 2.5142C55.4838 1.34943 58.4029 0.767044 61.6983 0.767044C64.9228 0.767044 67.7708 1.31392 70.2424 2.40767C72.7282 3.50142 74.6671 5.0071 76.0591 6.92472C77.4654 8.82812 78.1614 11.0085 78.1472 13.4659C78.1756 15.9091 77.3375 17.9119 75.633 19.4744C73.9426 21.0369 71.7978 21.9602 69.1983 22.2443V22.5852C72.7211 22.9687 75.3702 24.0483 77.1458 25.8239C78.9213 27.5852 79.7949 29.8011 79.7665 32.4716C79.7807 35.0284 79.0137 37.294 77.4654 39.2685C75.9313 41.2429 73.7935 42.7912 71.052 43.9134C68.3248 45.0355 65.1784 45.5966 61.6131 45.5966Z" fill="#29B3F1"/>
</svg>
