<svg width="52" height="54" viewBox="0 0 52 54" fill="none" xmlns="http://www.w3.org/2000/svg">
<path d="M6.73962 -0.5H42.2605C47.6459 -0.5 52 3.85413 52 9.23962V43.3855C52 48.7709 47.6459 53.1251 42.2604 53.1251H6.73962C1.35413 53.125 -3 48.7709 -3 43.3854V9.23962C-3 3.85413 1.35413 -0.5 6.73962 -0.5Z" fill="#390000"/>
<path d="M23.6521 31.675H15.1271L13.3855 37.0604C13.3396 37.2667 13.1563 37.4042 12.9501 37.3813H8.64173C8.38961 37.3813 8.32086 37.2438 8.38961 36.9688L15.7687 15.725C15.8375 15.4959 15.9062 15.2438 15.9979 14.9688C16.0895 14.4875 16.1354 13.9834 16.1354 13.4792C16.1125 13.3646 16.2041 13.25 16.3187 13.2271H16.3875H22.2541C22.4375 13.2271 22.5291 13.2958 22.552 13.4104L30.9166 37.0146C30.9854 37.2667 30.9166 37.3812 30.6875 37.3812H25.8979C25.7375 37.4041 25.577 37.2895 25.5312 37.1291L23.6521 31.675ZM16.4562 27.0229H22.2771L19.3437 17.4667L16.4562 27.0229Z" fill="#FF9A00"/>
<path d="M35.9126 17.1459C35.1564 17.1688 34.423 16.8709 33.873 16.3438C33.3459 15.7709 33.0709 15.0147 33.0939 14.2354C33.071 13.4563 33.3689 12.7229 33.9189 12.1958C34.4689 11.6687 35.2022 11.3937 35.9585 11.3937C36.8522 11.3937 37.5397 11.6687 38.0439 12.1958C38.548 12.7458 38.823 13.4792 38.8001 14.2354C38.823 15.0145 38.548 15.7708 37.998 16.3438C37.471 16.8938 36.6917 17.1917 35.9126 17.1459Z" fill="#FF9A00"/>
<path d="M33.3459 37.0375V19.3917C33.3459 19.1625 33.4376 19.0708 33.6438 19.0708H38.1813C38.3876 19.0708 38.4792 19.1854 38.4792 19.3917V37.0375C38.4792 37.2897 38.3876 37.4042 38.1813 37.4042H33.6897C33.4605 37.4042 33.3459 37.2667 33.3459 37.0375Z" fill="#FF9A00"/>
</svg>
