<svg width="37" height="36" viewBox="0 0 37 36" fill="none" xmlns="http://www.w3.org/2000/svg">
<g clip-path="url(#clip0_70_715)">
<path d="M5.75289 12.0056C4.51055 12.0056 3.50342 13.0127 3.50342 14.2551V24.7526C3.50342 25.9949 4.51055 27.0021 5.75289 27.0021C6.99523 27.0021 8.00236 25.9949 8.00236 24.7526V14.2551C8.00236 13.0127 6.99523 12.0056 5.75289 12.0056Z" fill="white"/>
<path d="M31.2468 12.0056C30.0044 12.0056 28.9973 13.0127 28.9973 14.2551V24.7526C28.9973 25.9949 30.0044 27.0021 31.2468 27.0021C32.4891 27.0021 33.4963 25.9949 33.4963 24.7526V14.2551C33.4963 13.0127 32.4892 12.0056 31.2468 12.0056Z" fill="white"/>
<path d="M26.7479 12.0056H10.2518C9.83769 12.0056 9.50195 12.3413 9.50195 12.7555V24.7526C9.5016 26.5345 10.7554 28.0704 12.5013 28.4268V33.7505C12.5013 34.9928 13.5084 36 14.7507 36C15.9931 36 17.0002 34.9928 17.0002 33.7505V28.5017H19.9995V33.7505C19.9995 34.9928 21.0067 36 22.249 36C23.4914 36 24.4985 34.9928 24.4985 33.7505V28.4268C26.2444 28.0704 27.4982 26.5345 27.4978 24.7526V12.7555C27.4977 12.3413 27.162 12.0056 26.7479 12.0056Z" fill="white"/>
<path d="M23.9512 3.11573L25.7792 1.28916C26.0771 1.00144 26.0853 0.526798 25.7977 0.228883C25.5099 -0.068961 25.0353 -0.0771856 24.7374 0.210466C24.7311 0.216511 24.725 0.222627 24.719 0.228883L22.5895 2.35843C19.9814 1.22547 17.02 1.22547 14.4119 2.35843L12.2824 0.227407C11.9846 -0.0603146 11.5099 -0.0520196 11.2221 0.245825C10.9415 0.536428 10.9415 0.997078 11.2221 1.28761L13.0487 3.11566C10.8219 4.58906 9.48828 7.08605 9.50206 9.7561C9.50206 10.1702 9.83779 10.506 10.2519 10.506H26.7481C27.1622 10.506 27.4979 10.1702 27.4979 9.7561C27.5116 7.08612 26.178 4.58914 23.9512 3.11573Z" fill="white"/>
<path d="M14.7508 7.50665C15.165 7.50665 15.5007 7.17094 15.5007 6.75681C15.5007 6.34268 15.165 6.00696 14.7508 6.00696C14.3367 6.00696 14.001 6.34268 14.001 6.75681C14.001 7.17094 14.3367 7.50665 14.7508 7.50665Z" fill="#1D1630"/>
<path d="M22.2491 7.50665C22.6632 7.50665 22.999 7.17094 22.999 6.75681C22.999 6.34268 22.6632 6.00696 22.2491 6.00696C21.835 6.00696 21.4993 6.34268 21.4993 6.75681C21.4993 7.17094 21.835 7.50665 22.2491 7.50665Z" fill="#1D1630"/>
</g>
<defs>
<clipPath id="clip0_70_715">
<rect width="36" height="36" fill="white" transform="translate(0.5)"/>
</clipPath>
</defs>
</svg>
