<svg width="44" height="46" viewBox="0 0 44 46" fill="none" xmlns="http://www.w3.org/2000/svg">
<path d="M41.3125 27.039V18.961C41.3125 18.551 40.9802 18.2188 40.5703 18.2188C40.1235 18.2188 39.8125 18.5668 39.8125 18.961V27.039C39.8125 27.449 40.1448 27.7812 40.5547 27.7812C41.0015 27.7812 41.3125 27.4332 41.3125 27.039Z" fill="white"/>
<path d="M4.1875 27.039V18.961C4.1875 18.551 3.85516 18.2188 3.44528 18.2188C2.99847 18.2188 2.6875 18.5668 2.6875 18.961V27.039C2.6875 27.449 3.01984 27.7812 3.42972 27.7812C3.87653 27.7812 4.1875 27.4332 4.1875 27.039Z" fill="white"/>
<path d="M17.146 38.8486L8.98234 34.6018C8.59375 34.3997 8.11506 34.5761 7.95222 34.9828C7.79519 35.3749 7.96862 35.7648 8.29159 35.9328L16.4552 40.1795C16.8438 40.3817 17.3225 40.2052 17.4854 39.7985C17.6424 39.4065 17.469 39.0166 17.146 38.8486Z" fill="white"/>
<path d="M17.491 6.2155C17.311 5.77132 16.827 5.62704 16.4552 5.82044L8.29155 10.0672C7.95236 10.2437 7.80292 10.6488 7.94645 11.0031C8.12645 11.4473 8.61048 11.5916 8.9823 11.3982L17.146 7.15141C17.4852 6.97497 17.6347 6.56988 17.491 6.2155Z" fill="white"/>
<path d="M36.0535 34.9968C35.8735 34.5526 35.3896 34.4083 35.0177 34.6017L26.854 38.8485C26.5149 39.0249 26.3654 39.43 26.509 39.7844C26.689 40.2286 27.173 40.3728 27.5448 40.1794L35.7085 35.9327C36.0477 35.7562 36.1972 35.3511 36.0535 34.9968Z" fill="white"/>
<path d="M35.7085 10.0673L27.5448 5.82054C27.1562 5.61842 26.6776 5.79486 26.5147 6.20154C26.3577 6.5937 26.5311 6.98351 26.8541 7.15151L35.0177 11.3983C35.4063 11.6004 35.885 11.424 36.0479 11.0173C36.2049 10.6252 36.0315 10.2353 35.7085 10.0673Z" fill="white"/>
<path d="M22.0075 37.4375C22.4176 37.4375 22.75 37.1051 22.75 36.695V36.0312C22.75 35.0386 21.25 35.0389 21.25 36.0312V36.695C21.25 37.0862 21.558 37.4375 22.0075 37.4375Z" fill="white"/>
<path d="M22.75 9.96877V9.30502C22.75 8.89496 22.4176 8.56252 22.0075 8.56252C21.5587 8.56252 21.25 8.91315 21.25 9.30502V9.96877C21.25 10.9614 22.75 10.9611 22.75 9.96877Z" fill="white"/>
<path d="M9.93334 28.3354L8.29121 29.1954C7.95352 29.3723 7.80446 29.7762 7.94743 30.1296C8.12771 30.5752 8.61315 30.72 8.98562 30.525L10.629 29.6647C11.5105 29.2038 10.81 27.8747 9.93334 28.3354Z" fill="white"/>
<path d="M36.0526 30.1296C36.1955 29.7761 36.0466 29.3722 35.7088 29.1953L34.0666 28.3353C33.1944 27.8769 32.4836 29.2006 33.371 29.6647L35.0144 30.5249C35.3863 30.7195 35.872 30.5758 36.0526 30.1296Z" fill="white"/>
<path d="M10.6291 16.3353L8.98573 15.475C8.59648 15.2712 8.11629 15.4483 7.95317 15.8563C7.79698 16.2469 7.96911 16.6359 8.29133 16.8046L9.93345 17.6647C10.812 18.1254 11.5095 16.7957 10.6291 16.3353Z" fill="white"/>
<path d="M36.0524 15.8704C35.8721 15.4248 35.3866 15.28 35.0142 15.475L33.3708 16.3353C32.4925 16.7946 33.1865 18.126 34.0665 17.6646L35.7086 16.8046C36.0464 16.6277 36.1953 16.2238 36.0524 15.8704Z" fill="white"/>
<path d="M23.0313 7.0625H20.9688C19.7281 7.0625 18.7188 6.05309 18.7188 4.8125V2.75C18.7188 1.50941 19.7281 0.5 20.9688 0.5H23.0313C24.2719 0.5 25.2813 1.50941 25.2813 2.75V4.8125C25.2813 6.05309 24.2719 7.0625 23.0313 7.0625Z" fill="white"/>
<path d="M23.0313 45.5H20.9688C19.7281 45.5 18.7188 44.4906 18.7188 43.25V41.1875C18.7188 39.9469 19.7281 38.9375 20.9688 38.9375H23.0313C24.2719 38.9375 25.2813 39.9469 25.2813 41.1875V43.25C25.2813 44.4906 24.2719 45.5 23.0313 45.5Z" fill="white"/>
<path d="M4.46875 16.7188H2.40625C1.16556 16.7188 0.15625 15.7093 0.15625 14.4687V12.4062C0.15625 11.1657 1.16556 10.1562 2.40625 10.1562H4.46875C5.70944 10.1562 6.71875 11.1657 6.71875 12.4062V14.4687C6.71875 15.7093 5.70944 16.7188 4.46875 16.7188Z" fill="white"/>
<path d="M41.5938 35.8438H39.5313C38.2906 35.8438 37.2812 34.8343 37.2812 33.5937V31.5312C37.2812 30.2907 38.2906 29.2812 39.5313 29.2812H41.5938C42.8344 29.2812 43.8438 30.2907 43.8438 31.5312V33.5937C43.8438 34.8343 42.8344 35.8438 41.5938 35.8438Z" fill="white"/>
<path d="M41.5938 16.7188H39.5313C38.2906 16.7188 37.2812 15.7093 37.2812 14.4687V12.4062C37.2812 11.1657 38.2906 10.1562 39.5313 10.1562H41.5938C42.8344 10.1562 43.8438 11.1657 43.8438 12.4062V14.4687C43.8438 15.7093 42.8344 16.7188 41.5938 16.7188Z" fill="white"/>
<path d="M4.46875 35.8438H2.40625C1.16556 35.8438 0.15625 34.8343 0.15625 33.5937V31.5312C0.15625 30.2907 1.16556 29.2812 2.40625 29.2812H4.46875C5.70944 29.2812 6.71875 30.2907 6.71875 31.5312V33.5937C6.71875 34.8343 5.70944 35.8438 4.46875 35.8438Z" fill="white"/>
<path d="M21.0543 23.0359L13.3668 27.2213C13.117 27.3573 12.8125 27.1765 12.8125 26.8919V17.9375C12.8125 17.6628 12.9627 17.4102 13.2039 17.2788L20.6958 13.1999C20.9456 13.0639 21.2501 13.2448 21.2501 13.5293V22.7066C21.25 22.8439 21.1749 22.9703 21.0543 23.0359Z" fill="white"/>
<path d="M22.1794 24.3265L29.8327 28.4934C30.0936 28.6354 30.0936 29.01 29.8327 29.152L22.3587 33.2212C22.1351 33.3429 21.865 33.3429 21.6415 33.2212L14.1676 29.152C13.9067 29.01 13.9067 28.6354 14.1676 28.4934L21.8209 24.3265C21.9325 24.2657 22.0675 24.2657 22.1794 24.3265Z" fill="white"/>
<path d="M22.75 22.7066V13.5293C22.75 13.2448 23.0544 13.0639 23.3043 13.1999L30.7962 17.2788C31.0373 17.4102 31.1875 17.6628 31.1875 17.9375V26.8919C31.1875 27.1765 30.8831 27.3573 30.6332 27.2213L22.9457 23.0359C22.8251 22.9703 22.75 22.8439 22.75 22.7066Z" fill="white"/>
</svg>
