<svg width="63" height="62" viewBox="0 0 63 62" fill="none" xmlns="http://www.w3.org/2000/svg">
<path d="M5.23989 20.645H2.32153C1.31839 20.645 0.505127 21.4583 0.505127 22.4614C0.505127 23.4646 1.31839 24.2778 2.32153 24.2778H5.23989C7.6459 24.1892 7.64675 20.734 5.23989 20.645Z" fill="white"/>
<path d="M60.6896 20.645H57.7712C56.7681 20.645 55.9548 21.4583 55.9548 22.4614C55.9548 23.4646 56.7681 24.2778 57.7712 24.2778H60.6896C63.0957 24.1892 63.0965 20.734 60.6896 20.645Z" fill="white"/>
<path d="M11.6486 5.1728C13.4124 6.81144 15.8566 4.36898 14.2173 2.60404L12.154 0.540724C11.4448 -0.168522 10.2946 -0.168522 9.58525 0.540724C8.87588 1.24997 8.87588 2.40012 9.58525 3.10949L11.6486 5.1728Z" fill="white"/>
<path d="M51.3627 39.7499C49.5987 38.1113 47.1548 40.5538 48.7939 42.3186L50.8573 44.3819C51.5664 45.0911 52.7164 45.0915 53.426 44.3819C54.1354 43.6727 54.1354 42.5225 53.426 41.8132L51.3627 39.7499Z" fill="white"/>
<path d="M11.6486 39.7499L9.58525 41.8133C8.87588 42.5225 8.87588 43.6727 9.58525 44.382C10.2944 45.0911 11.4444 45.0916 12.154 44.382L14.2173 42.3187C15.8561 40.5547 13.4133 38.1109 11.6486 39.7499Z" fill="white"/>
<path d="M50.8573 0.540911L48.794 2.60423C48.0846 3.31347 48.0846 4.46362 48.794 5.17299C49.5031 5.88211 50.6531 5.8826 51.3628 5.17299L53.4261 3.10967C55.0648 1.3457 52.6221 -1.09797 50.8573 0.540911V0.540911Z" fill="white"/>
<path d="M40.0406 24.2778L36.6149 27.7035C38.5247 31.3975 35.6832 36.0073 31.5056 35.9514C28.3585 35.9514 25.798 33.3911 25.798 30.2438C25.7426 26.0666 30.3521 23.2245 34.0461 25.1347L38.0038 21.1769C38.3443 20.8363 38.8064 20.6448 39.2881 20.6448H51.7232C48.9082 -3.83848 14.0941 -3.82056 11.2881 20.6448H22.9709L26.3966 17.2191C24.4868 13.5252 27.3283 8.91534 31.5059 8.97116C34.6531 8.97116 37.2135 11.5316 37.2135 14.6788C37.269 18.856 32.6594 21.6981 28.9654 19.7878L25.0078 23.7456C24.6672 24.0862 24.2051 24.2777 23.7234 24.2777H11.2894C11.7473 29.352 14.1083 34.0855 17.928 37.4777C20.0082 39.4006 21.3576 41.9844 21.7712 44.758C21.7757 44.7574 41.2335 44.7574 41.2403 44.758C41.6537 41.985 43.0032 39.4009 45.0836 37.4777C48.9034 34.0856 51.2645 29.352 51.7222 24.2777H40.0406V24.2778Z" fill="white"/>
<path d="M21.907 50.4655C21.907 55.1372 25.2624 59.038 29.6895 59.8896C29.5089 62.704 33.5036 62.7023 33.3223 59.8896C37.7494 59.038 41.1048 55.1372 41.1048 50.4655V48.3906H21.907V50.4655Z" fill="white"/>
<path d="M33.5804 14.6793C33.5804 13.5353 32.6496 12.6045 31.5056 12.6045C28.7569 12.7089 28.7576 16.6501 31.5056 16.7541C32.6496 16.754 33.5804 15.8233 33.5804 14.6793V14.6793Z" fill="white"/>
<path d="M29.4309 30.2436C29.4309 31.3876 30.3618 32.3185 31.5057 32.3185C34.2544 32.2141 34.2537 28.2728 31.5057 28.1689C30.3618 28.1689 29.4309 29.0997 29.4309 30.2436V30.2436Z" fill="white"/>
</svg>
