<svg width="63" height="62" viewBox="0 0 63 62" fill="none" xmlns="http://www.w3.org/2000/svg">
<path d="M62.1025 32.375C62.3609 31.963 62.4979 31.4865 62.4979 31.0002C62.4979 30.5138 62.3609 30.0373 62.1025 29.6253C53.7167 16.2834 44.2764 10.3335 31.4985 10.3335C18.7206 10.3335 9.28183 16.2834 0.894526 29.6253C0.635638 30.0372 0.498291 30.5137 0.498291 31.0002C0.498291 31.4866 0.635638 31.9632 0.894526 32.375C9.28183 45.7169 18.7193 51.6668 31.4985 51.6668C44.2777 51.6668 53.7152 45.7169 62.1025 32.375ZM31.4985 43.9168C28.9438 43.9168 26.4465 43.1593 24.3224 41.74C22.1982 40.3207 20.5427 38.3034 19.5651 35.9432C18.5874 33.5829 18.3316 30.9858 18.83 28.4802C19.3284 25.9747 20.5586 23.6731 22.365 21.8667C24.1715 20.0603 26.473 18.8301 28.9786 18.3317C31.4842 17.8333 34.0813 18.0891 36.4415 19.0667C38.8017 20.0444 40.819 21.6999 42.2383 23.824C43.6576 25.9482 44.4152 28.4455 44.4152 31.0002C44.4111 34.4246 43.049 37.7077 40.6275 40.1292C38.206 42.5506 34.923 43.9128 31.4985 43.9168Z" fill="white"/>
<path d="M31.4985 38.75C35.7787 38.75 39.2485 35.2802 39.2485 31C39.2485 26.7198 35.7787 23.25 31.4985 23.25C27.2183 23.25 23.7485 26.7198 23.7485 31C23.7485 35.2802 27.2183 38.75 31.4985 38.75Z" fill="white"/>
<path d="M3.08187 12.9167C3.76701 12.9167 4.42409 12.6445 4.90856 12.16C5.39303 11.6756 5.6652 11.0185 5.6652 10.3333V5.16667H10.8319C11.517 5.16667 12.1741 4.8945 12.6586 4.41003C13.143 3.92556 13.4152 3.26848 13.4152 2.58333C13.4152 1.89819 13.143 1.24111 12.6586 0.756641C12.1741 0.272172 11.517 0 10.8319 0L3.08187 0C2.39673 0 1.73965 0.272172 1.25518 0.756641C0.770707 1.24111 0.498535 1.89819 0.498535 2.58333L0.498535 10.3333C0.498535 11.0185 0.770707 11.6756 1.25518 12.16C1.73965 12.6445 2.39673 12.9167 3.08187 12.9167Z" fill="white"/>
<path d="M59.9151 0H52.1651C51.48 0 50.8229 0.272172 50.3384 0.756641C49.854 1.24111 49.5818 1.89819 49.5818 2.58333C49.5818 3.26848 49.854 3.92556 50.3384 4.41003C50.8229 4.8945 51.48 5.16667 52.1651 5.16667H57.3318V10.3333C57.3318 11.0185 57.604 11.6756 58.0884 12.16C58.5729 12.6445 59.23 12.9167 59.9151 12.9167C60.6003 12.9167 61.2573 12.6445 61.7418 12.16C62.2263 11.6756 62.4985 11.0185 62.4985 10.3333V2.58333C62.4985 1.89819 62.2263 1.24111 61.7418 0.756641C61.2573 0.272172 60.6003 0 59.9151 0V0Z" fill="white"/>
<path d="M10.8319 56.8335H5.6652V51.6668C5.6652 50.9817 5.39303 50.3246 4.90856 49.8401C4.42409 49.3557 3.76701 49.0835 3.08187 49.0835C2.39673 49.0835 1.73965 49.3557 1.25518 49.8401C0.770707 50.3246 0.498535 50.9817 0.498535 51.6668L0.498535 59.4168C0.498535 60.102 0.770707 60.7591 1.25518 61.2435C1.73965 61.728 2.39673 62.0002 3.08187 62.0002H10.8319C11.517 62.0002 12.1741 61.728 12.6586 61.2435C13.143 60.7591 13.4152 60.102 13.4152 59.4168C13.4152 58.7317 13.143 58.0746 12.6586 57.5901C12.1741 57.1057 11.517 56.8335 10.8319 56.8335Z" fill="white"/>
<path d="M59.9151 49.0835C59.23 49.0835 58.5729 49.3557 58.0884 49.8401C57.604 50.3246 57.3318 50.9817 57.3318 51.6668V56.8335H52.1651C51.48 56.8335 50.8229 57.1057 50.3384 57.5901C49.854 58.0746 49.5818 58.7317 49.5818 59.4168C49.5818 60.102 49.854 60.7591 50.3384 61.2435C50.8229 61.728 51.48 62.0002 52.1651 62.0002H59.9151C60.6003 62.0002 61.2573 61.728 61.7418 61.2435C62.2263 60.7591 62.4985 60.102 62.4985 59.4168V51.6668C62.4985 50.9817 62.2263 50.3246 61.7418 49.8401C61.2573 49.3557 60.6003 49.0835 59.9151 49.0835Z" fill="white"/>
</svg>
