<svg width="31" height="46" viewBox="0 0 31 46" fill="none" xmlns="http://www.w3.org/2000/svg">
<path d="M7.65358 45.5C11.7936 45.5 15.1535 42.1401 15.1535 38.0001V30.5H7.65358C3.51358 30.5 0.153564 33.86 0.153564 38.0001C0.153564 42.1401 3.51358 45.5 7.65358 45.5Z" fill="#0ACF83"/>
<path d="M0.153564 23C0.153564 18.86 3.51358 15.5 7.65358 15.5H15.1535V30.4999H7.65358C3.51358 30.4999 0.153564 27.14 0.153564 23Z" fill="#A259FF"/>
<path d="M0.153564 8.00001C0.153564 3.86 3.51358 0.5 7.65358 0.5H15.1535V15.5H7.65358C3.51358 15.5 0.153564 12.14 0.153564 8.00001Z" fill="#F24E1E"/>
<path d="M15.1531 0.5H22.6531C26.7931 0.5 30.1531 3.86 30.1531 8.00001C30.1531 12.14 26.7931 15.5 22.6531 15.5H15.1531V0.5Z" fill="#FF7262"/>
<path d="M30.1531 23C30.1531 27.14 26.7931 30.4999 22.6531 30.4999C18.5131 30.4999 15.1531 27.14 15.1531 23C15.1531 18.86 18.5131 15.5 22.6531 15.5C26.7931 15.5 30.1531 18.86 30.1531 23Z" fill="#1ABCFE"/>
</svg>
