<svg width="37" height="28" viewBox="0 0 37 28" fill="none" xmlns="http://www.w3.org/2000/svg">
<path d="M36.5 21.5783C36.4156 16.8814 35.8608 12.1318 34.951 7.33791C34.2099 4.00721 31.5436 1.04072 27.2834 0.823458C24.1383 0.694083 23.5301 2.48565 19.9667 2.45119C18.9907 2.44486 18.0155 2.44486 17.0396 2.45119C13.4754 2.48565 12.8658 0.694083 9.72216 0.823458C5.46122 1.04072 2.712 3.99947 2.05177 7.33791C1.14122 12.1318 0.586454 16.8807 0.502782 21.5776C0.482391 24.8478 3.71114 27.0233 5.84161 27.1724C9.957 27.4831 13.2265 20.2262 15.7177 20.2255C17.5747 20.236 19.4309 20.2367 21.2879 20.2255C23.7797 20.2255 27.0465 27.4838 31.1647 27.1731C33.2944 27.024 36.6068 24.8338 36.5007 21.5783H36.5ZM13.9254 12.4138H12.0059V14.3333C12.0059 15.1433 11.3492 15.8 10.5392 15.8C9.72919 15.8 9.07247 15.1433 9.07247 14.3333V12.4138H7.15294C6.34294 12.4138 5.68622 11.7571 5.68622 10.9471C5.68622 10.1371 6.34294 9.48033 7.15294 9.48033H9.07247V7.5608C9.07247 6.7508 9.72919 6.09408 10.5392 6.09408C11.3492 6.09408 12.0059 6.7508 12.0059 7.5608V9.48033H13.9254C14.7354 9.48033 15.3922 10.1371 15.3922 10.9471C15.3922 11.7571 14.7354 12.4138 13.9254 12.4138ZM25.778 15.7993C24.6298 15.8303 23.675 14.9232 23.644 13.7757C23.6138 12.624 24.5215 11.6678 25.669 11.6382C26.8179 11.6094 27.7742 12.5157 27.8037 13.6646C27.8325 14.8135 26.9262 15.7698 25.778 15.7993ZM29.2409 10.2552C28.0927 10.2875 27.1357 9.37979 27.1041 8.23158C27.0753 7.08127 27.9816 6.12643 29.1305 6.09479C30.2808 6.06455 31.2357 6.97229 31.2666 8.12119C31.2968 9.2694 30.3884 10.2263 29.2409 10.2552Z" fill="white"/>
</svg>
