<svg width="102" height="1060" viewBox="0 0 102 1060" fill="none" xmlns="http://www.w3.org/2000/svg">
<path d="M3.59999 967.7L4.52307 968.085L4.52785 968.073L4.53236 968.062L3.59999 967.7ZM11.55 955.25L10.8429 954.543L10.8429 954.543L11.55 955.25ZM23.85 947L24.2415 947.92L23.85 947ZM51.6 946.4L51.244 947.335L51.2564 947.339L51.6 946.4ZM62.85 952.85L63.4902 952.082L63.4857 952.078L62.85 952.85ZM72.9 966.05L73.8109 965.637L73.8077 965.63L73.8044 965.623L72.9 966.05ZM76.5 1032.35L75.5 1032.35L75.5 1033.35L76.5 1033.35L76.5 1032.35ZM102 1032.35L103 1032.35L103 1031.35L102 1031.35L102 1032.35ZM102 1059.5L102 1060.5L103 1060.5L103 1059.5L102 1059.5ZM50.4 977.9L51.3138 977.494L51.3089 977.483L51.3037 977.472L50.4 977.9ZM46.8 973.4L46.194 974.195L46.2012 974.201L46.2086 974.206L46.8 973.4ZM31.95 973.55L31.3385 972.759L31.3322 972.764L31.95 973.55ZM28.65 978.05L29.5638 978.456L29.5678 978.447L29.5716 978.438L28.65 978.05ZM51.6 1032.35L51.6 1033.35L52.6 1033.35L52.6 1032.35L51.6 1032.35ZM1.59999 985.7C1.59999 978.585 2.58935 972.726 4.52307 968.085L2.67692 967.315C0.61063 972.274 -0.400013 978.415 -0.400013 985.7L1.59999 985.7ZM4.53236 968.062C6.38682 963.279 8.96421 959.25 12.2571 955.957L10.8429 954.543C7.33577 958.05 4.61317 962.321 2.66763 967.338L4.53236 968.062ZM12.2571 955.957C15.6636 952.551 19.6556 949.872 24.2415 947.92L23.4584 946.08C18.6444 948.128 14.4364 950.949 10.8429 954.543L12.2571 955.957ZM24.2415 947.92C28.8179 945.973 33.5848 945 38.55 945L38.55 943C33.3152 943 28.2821 944.027 23.4584 946.08L24.2415 947.92ZM38.55 945C42.9285 945 47.1578 945.778 51.244 947.334L51.956 945.466C47.6422 943.822 43.1715 943 38.55 943L38.55 945ZM51.2564 947.339C55.2493 948.8 58.9007 950.893 62.2143 953.622L63.4857 952.078C59.9993 949.207 56.1507 947 51.9436 945.461L51.2564 947.339ZM62.2098 953.618C66.29 957.018 69.5532 961.299 71.9956 966.477L73.8044 965.623C71.2468 960.201 67.81 955.682 63.4902 952.082L62.2098 953.618ZM71.989 966.462C74.314 971.597 75.5 977.996 75.5 985.7L77.5 985.7C77.5 977.804 76.286 971.103 73.8109 965.637L71.989 966.462ZM75.5 985.7L75.5 1032.35L77.5 1032.35L77.5 985.7L75.5 985.7ZM76.5 1033.35L102 1033.35L102 1031.35L76.5 1031.35L76.5 1033.35ZM101 1032.35L101 1059.5L103 1059.5L103 1032.35L101 1032.35ZM102 1058.5L6.9 1058.5L6.9 1060.5L102 1060.5L102 1058.5ZM6.9 1058.5C4.9663 1058.5 3.69672 1058 2.89835 1057.16C2.09167 1056.31 1.59999 1054.96 1.59999 1052.9L-0.40001 1052.9C-0.40001 1055.24 0.15831 1057.19 1.45164 1058.54C2.75327 1059.9 4.63369 1060.5 6.9 1060.5L6.9 1058.5ZM1.59999 1052.9L1.59999 985.7L-0.400013 985.7L-0.40001 1052.9L1.59999 1052.9ZM52.6 985.1C52.6 982.026 52.1924 979.471 51.3138 977.494L49.4862 978.306C50.2075 979.929 50.6 982.174 50.6 985.1L52.6 985.1ZM51.3037 977.472C50.342 975.442 49.0419 973.804 47.3914 972.594L46.2086 974.206C47.5581 975.196 48.658 976.558 49.4963 978.328L51.3037 977.472ZM47.406 972.605C45.1277 970.869 42.5136 970 39.6 970L39.6 972C42.0864 972 44.2723 972.731 46.194 974.195L47.406 972.605ZM39.6 970C36.4889 970 33.7216 970.917 31.3386 972.759L32.5614 974.341C34.5784 972.783 36.911 972 39.6 972L39.6 970ZM31.3322 972.764C29.779 973.984 28.5837 975.63 27.7284 977.662L29.5716 978.438C30.3163 976.67 31.321 975.316 32.5678 974.336L31.3322 972.764ZM27.7362 977.644C26.8591 979.617 26.45 982.121 26.45 985.1L28.45 985.1C28.45 982.279 28.8409 980.083 29.5638 978.456L27.7362 977.644ZM26.45 985.1L26.45 1030.4L28.45 1030.4L28.45 985.1L26.45 985.1ZM26.45 1030.4C26.45 1031.22 26.6753 1032.02 27.2945 1032.6C27.8998 1033.16 28.7135 1033.35 29.55 1033.35L29.55 1031.35C28.9865 1031.35 28.7502 1031.22 28.6554 1031.13C28.5747 1031.05 28.45 1030.88 28.45 1030.4L26.45 1030.4ZM29.55 1033.35L51.6 1033.35L51.6 1031.35L29.55 1031.35L29.55 1033.35ZM52.6 1032.35L52.6 985.1L50.6 985.1L50.6 1032.35L52.6 1032.35ZM97.65 905.184L98.5628 905.593L98.5677 905.581L97.65 905.184ZM85.5 922.284L86.1735 923.023L86.1777 923.019L85.5 922.284ZM70.05 931.884L69.6814 930.954L70.05 931.884ZM30.6 930.984L31.0127 930.073L30.6 930.984ZM13.95 918.984L14.6854 918.306L14.681 918.302L13.95 918.984ZM4.19999 903.084L5.13572 902.731L5.13256 902.723L4.19999 903.084ZM4.19999 838.734L5.13056 839.1L5.13415 839.091L5.13756 839.082L4.19999 838.734ZM13.95 822.684L14.6811 823.366L14.6853 823.362L13.95 822.684ZM30.6 810.684L30.1873 809.773L30.6 810.684ZM85.5 819.384L86.1777 818.649L86.1735 818.645L85.5 819.384ZM97.65 836.484L98.5678 836.087L98.5627 836.075L97.65 836.484ZM34.05 900.684L33.3101 901.357L33.3186 901.366L33.3273 901.375L34.05 900.684ZM41.85 906.234L41.4271 907.14L41.4397 907.146L41.4524 907.152L41.85 906.234ZM60.3 906.534L60.6657 907.465L60.6773 907.46L60.3 906.534ZM67.5 901.884L66.8243 901.147L66.8172 901.153L66.8103 901.16L67.5 901.884ZM73.2 893.634L74.1206 894.025L73.2 893.634ZM73.2 848.034L74.1206 847.643L73.2 848.034ZM67.5 839.784L66.8103 840.508L66.8172 840.515L66.8243 840.521L67.5 839.784ZM60.3 835.134L60.6773 834.208L60.6656 834.203L60.3 835.134ZM41.85 835.584L42.2476 836.502L42.2603 836.496L42.2729 836.49L41.85 835.584ZM34.05 840.984L33.3273 840.293L33.3186 840.302L33.31 840.311L34.05 840.984ZM29.25 848.784L28.3215 848.413L29.25 848.784ZM101 881.484C101 890.48 99.5664 898.239 96.7323 904.787L98.5677 905.581C101.534 898.729 103 890.688 103 881.484L101 881.484ZM96.7373 904.775C93.7894 911.359 89.8169 916.946 84.8223 921.549L86.1777 923.019C91.3831 918.222 95.5106 912.409 98.5627 905.593L96.7373 904.775ZM84.8265 921.545C80.418 925.561 75.3719 928.698 69.6814 930.954L70.4186 932.814C76.3281 930.47 81.582 927.207 86.1735 923.023L84.8265 921.545ZM69.6814 930.954C64.0071 933.205 57.8832 934.334 51.3 934.334L51.3 936.334C58.1168 936.334 64.4929 935.163 70.4186 932.814L69.6814 930.954ZM51.3 934.334C44.0346 934.334 37.2762 932.911 31.0127 930.073L30.1873 931.895C36.7238 934.857 43.7654 936.334 51.3 936.334L51.3 934.334ZM31.0127 930.073C24.7332 927.228 19.2933 923.306 14.6853 918.306L13.2146 919.662C18.0067 924.862 23.6668 928.94 30.1873 931.895L31.0127 930.073ZM14.681 918.302C10.5753 913.903 7.3924 908.716 5.13569 902.731L3.26429 903.437C5.60759 909.652 8.92468 915.065 13.2189 919.666L14.681 918.302ZM5.13256 902.723C2.78618 896.662 1.59998 889.588 1.59998 881.484L-0.400017 881.484C-0.400017 889.78 0.813793 897.106 3.26742 903.445L5.13256 902.723ZM1.59998 881.484L1.59998 860.184L-0.400018 860.184L-0.400017 881.484L1.59998 881.484ZM1.59998 860.184C1.59998 852.079 2.78635 845.058 5.13056 839.1L3.26942 838.368C0.813619 844.61 -0.400019 851.889 -0.400018 860.184L1.59998 860.184ZM5.13756 839.082C7.39499 832.997 10.5779 827.763 14.681 823.366L13.2189 822.002C8.9221 826.605 5.60499 832.071 3.26242 838.386L5.13756 839.082ZM14.6853 823.362C19.2933 818.362 24.7332 814.44 31.0127 811.595L30.1873 809.773C23.6668 812.728 18.0067 816.806 13.2146 822.006L14.6853 823.362ZM31.0127 811.595C37.2762 808.757 44.0346 807.334 51.3 807.334L51.3 805.334C43.7654 805.334 36.7238 806.811 30.1873 809.773L31.0127 811.595ZM51.3 807.334C57.8832 807.334 64.0071 808.463 69.6814 810.714L70.4186 808.854C64.4929 806.505 58.1168 805.334 51.3 805.334L51.3 807.334ZM69.6814 810.714C75.3719 812.97 80.418 816.107 84.8265 820.123L86.1735 818.645C81.582 814.461 76.3281 811.198 70.4186 808.854L69.6814 810.714ZM84.8223 820.119C89.8169 824.722 93.7894 830.309 96.7373 836.893L98.5627 836.075C95.5106 829.259 91.3831 823.446 86.1777 818.649L84.8223 820.119ZM96.7323 836.881C99.5664 843.429 101 851.188 101 860.184L103 860.184C103 850.98 101.534 842.939 98.5677 836.087L96.7323 836.881ZM101 860.184L101 881.484L103 881.484L103 860.184L101 860.184ZM26.45 881.484C26.45 886.162 27.0588 890.099 28.3215 893.255L30.1785 892.513C29.0412 889.669 28.45 886.006 28.45 881.484L26.45 881.484ZM28.3215 893.255C29.562 896.357 31.223 899.061 33.3101 901.357L34.7899 900.011C32.877 897.907 31.338 895.411 30.1785 892.513L28.3215 893.255ZM33.3273 901.375C35.6165 903.768 38.3193 905.69 41.4271 907.14L42.2729 905.328C39.3807 903.978 36.8835 902.2 34.7726 899.993L33.3273 901.375ZM41.4524 907.152C44.5829 908.508 47.9188 909.184 51.45 909.184L51.45 907.184C48.1812 907.184 45.1171 906.56 42.2476 905.316L41.4524 907.152ZM51.45 909.184C54.6713 909.184 57.7456 908.612 60.6656 907.465L59.9343 905.603C57.2544 906.656 54.4287 907.184 51.45 907.184L51.45 909.184ZM60.6773 907.46C63.4925 906.313 65.9986 904.695 68.1896 902.608L66.8103 901.16C64.8014 903.073 62.5075 904.555 59.9227 905.608L60.6773 907.46ZM68.1757 902.621C70.6914 900.315 72.6704 897.443 74.1206 894.025L72.2794 893.243C70.9296 896.425 69.1085 899.053 66.8243 901.147L68.1757 902.621ZM74.1206 894.025C75.5875 890.567 76.3 886.375 76.3 881.484L74.3 881.484C74.3 886.193 73.6125 890.101 72.2794 893.243L74.1206 894.025ZM76.3 881.484L76.3 860.184L74.3 860.184L74.3 881.484L76.3 881.484ZM76.3 860.184C76.3 855.293 75.5875 851.101 74.1206 847.643L72.2794 848.425C73.6125 851.567 74.3 855.475 74.3 860.184L76.3 860.184ZM74.1206 847.643C72.6704 844.225 70.6914 841.353 68.1757 839.047L66.8243 840.521C69.1085 842.615 70.9296 845.243 72.2794 848.425L74.1206 847.643ZM68.1896 839.06C65.9986 836.973 63.4925 835.355 60.6773 834.208L59.9227 836.06C62.5075 837.113 64.8014 838.595 66.8103 840.508L68.1896 839.06ZM60.6656 834.203C57.7456 833.056 54.6712 832.484 51.45 832.484L51.45 834.484C54.4287 834.484 57.2544 835.012 59.9343 836.065L60.6656 834.203ZM51.45 832.484C47.9079 832.484 44.5631 833.214 41.4271 834.678L42.2729 836.49C45.1368 835.154 48.192 834.484 51.45 834.484L51.45 832.484ZM41.4524 834.666C38.3334 836.018 35.6221 837.894 33.3273 840.293L34.7726 841.675C36.8779 839.474 39.3665 837.75 42.2476 836.502L41.4524 834.666ZM33.31 840.311C31.223 842.607 29.562 845.311 28.3215 848.413L30.1785 849.155C31.338 846.257 32.877 843.761 34.7899 841.657L33.31 840.311ZM28.3215 848.413C27.0588 851.569 26.45 855.506 26.45 860.184L28.45 860.184C28.45 855.662 29.0412 851.999 30.1785 849.155L28.3215 848.413ZM26.45 860.184L26.45 881.484L28.45 881.484L28.45 860.184L26.45 860.184ZM102 766.188L103 766.188L103 765.188L102 765.188L102 766.188ZM102 793.338L102 794.338L103 794.338L103 793.338L102 793.338ZM3.29998 698.988L4.21562 699.39L4.21977 699.38L4.22372 699.371L3.29998 698.988ZM10.2 688.638L9.50687 687.917L9.50538 687.918L10.2 688.638ZM19.35 682.788L19.7214 683.716L19.7376 683.71L19.7536 683.703L19.35 682.788ZM41.85 682.638L42.2124 681.706L42.2039 681.703L41.85 682.638ZM51.15 690.138L50.3393 690.723L51.2357 691.965L52.0119 690.645L51.15 690.138ZM58.8 682.788L59.2355 683.688L59.2472 683.682L59.2586 683.677L58.8 682.788ZM97.8 680.388L97.8 681.388L97.8356 681.388L97.8712 681.385L97.8 680.388ZM102 679.938L103 679.938L103 678.785L101.859 678.948L102 679.938ZM102 707.388L102.135 708.379L103 708.261L103 707.388L102 707.388ZM68.1 710.388L67.3281 709.752L67.328 709.752L68.1 710.388ZM66 766.188L65 766.188L65 767.188L66 767.188L66 766.188ZM39.6 710.538L38.9694 711.314L38.9753 711.319L39.6 710.538ZM28.65 710.838L29.3143 711.585L29.3363 711.566L29.3571 711.545L28.65 710.838ZM42.9 766.188L42.9 767.188L43.9 767.188L43.9 766.188L42.9 766.188ZM101 766.188L101 793.338L103 793.338L103 766.188L101 766.188ZM102 792.338L6.89999 792.338L6.89999 794.338L102 794.338L102 792.338ZM6.89999 792.338C4.97248 792.338 3.7057 791.825 2.90604 790.968C2.09425 790.098 1.59998 788.7 1.59998 786.588L-0.400021 786.588C-0.400021 788.976 0.155715 790.952 1.44393 792.333C2.74427 793.726 4.62749 794.338 6.89999 794.338L6.89999 792.338ZM1.59998 786.588L1.59998 714.588L-0.400025 714.588L-0.400021 786.588L1.59998 786.588ZM1.59998 714.588C1.59998 708.374 2.48903 703.323 4.21562 699.39L2.38433 698.586C0.510921 702.853 -0.400025 708.202 -0.400025 714.588L1.59998 714.588ZM4.22372 699.371C5.87654 695.385 8.10277 692.053 10.8946 689.357L9.50538 687.918C6.49719 690.823 4.12341 694.391 2.37624 698.605L4.22372 699.371ZM10.8931 689.359C13.3961 686.952 16.3355 685.071 19.7214 683.716L18.9786 681.859C15.3645 683.305 12.2039 685.324 9.50687 687.917L10.8931 689.359ZM19.7536 683.703C23.0235 682.26 26.4858 681.538 30.15 681.538L30.15 679.538C26.2142 679.538 22.4764 680.316 18.9463 681.873L19.7536 683.703ZM30.15 681.538C34.1335 681.538 37.9133 682.217 41.4961 683.573L42.2039 681.703C38.3867 680.258 34.3664 679.538 30.15 679.538L30.15 681.538ZM41.4875 683.57C44.8821 684.89 47.8349 687.256 50.3393 690.723L51.9607 689.552C49.2651 685.82 46.0178 683.186 42.2124 681.706L41.4875 683.57ZM52.0119 690.645C53.9267 687.39 56.3383 685.09 59.2355 683.688L58.3644 681.888C55.0617 683.486 52.3732 686.086 50.288 689.631L52.0119 690.645ZM59.2586 683.677C62.1524 682.183 66.4165 681.388 72.15 681.388L72.15 679.388C66.2835 679.388 61.6476 680.193 58.3413 681.899L59.2586 683.677ZM72.15 681.388L92.4 681.388L92.4 679.388L72.15 679.388L72.15 681.388ZM92.4 681.388C92.4043 681.388 92.4086 681.388 92.4129 681.388C92.4172 681.388 92.4215 681.388 92.4257 681.388C92.43 681.388 92.4343 681.388 92.4386 681.388C92.4429 681.388 92.4472 681.388 92.4515 681.388C92.4558 681.388 92.46 681.388 92.4643 681.388C92.4686 681.388 92.4729 681.388 92.4772 681.388C92.4814 681.388 92.4857 681.388 92.49 681.388C92.4943 681.388 92.4985 681.388 92.5028 681.388C92.5071 681.388 92.5114 681.388 92.5156 681.388C92.5199 681.388 92.5242 681.388 92.5284 681.388C92.5327 681.388 92.537 681.388 92.5412 681.388C92.5455 681.388 92.5498 681.388 92.554 681.388C92.5583 681.388 92.5625 681.388 92.5668 681.388C92.571 681.388 92.5753 681.388 92.5796 681.388C92.5838 681.388 92.5881 681.388 92.5923 681.388C92.5966 681.388 92.6008 681.388 92.6051 681.388C92.6093 681.388 92.6136 681.388 92.6178 681.388C92.622 681.388 92.6263 681.388 92.6305 681.388C92.6348 681.388 92.639 681.388 92.6432 681.388C92.6475 681.388 92.6517 681.388 92.656 681.388C92.6602 681.388 92.6644 681.388 92.6687 681.388C92.6729 681.388 92.6771 681.388 92.6814 681.388C92.6856 681.388 92.6898 681.388 92.694 681.388C92.6983 681.388 92.7025 681.388 92.7067 681.388C92.711 681.388 92.7152 681.388 92.7194 681.388C92.7236 681.388 92.7278 681.388 92.732 681.388C92.7363 681.388 92.7405 681.388 92.7447 681.388C92.7489 681.388 92.7531 681.388 92.7573 681.388C92.7615 681.388 92.7657 681.388 92.77 681.388C92.7742 681.388 92.7784 681.388 92.7826 681.388C92.7868 681.388 92.791 681.388 92.7952 681.388C92.7994 681.388 92.8036 681.388 92.8078 681.388C92.812 681.388 92.8162 681.388 92.8204 681.388C92.8246 681.388 92.8288 681.388 92.833 681.388C92.8372 681.388 92.8414 681.388 92.8455 681.388C92.8497 681.388 92.8539 681.388 92.8581 681.388C92.8623 681.388 92.8665 681.388 92.8707 681.388C92.8748 681.388 92.879 681.388 92.8832 681.388C92.8874 681.388 92.8916 681.388 92.8958 681.388C92.8999 681.388 92.9041 681.388 92.9083 681.388C92.9125 681.388 92.9166 681.388 92.9208 681.388C92.925 681.388 92.9292 681.388 92.9333 681.388C92.9375 681.388 92.9416 681.388 92.9458 681.388C92.95 681.388 92.9541 681.388 92.9583 681.388C92.9625 681.388 92.9666 681.388 92.9708 681.388C92.9749 681.388 92.9791 681.388 92.9833 681.388C92.9874 681.388 92.9916 681.388 92.9957 681.388C92.9999 681.388 93.004 681.388 93.0082 681.388C93.0123 681.388 93.0165 681.388 93.0206 681.388C93.0248 681.388 93.0289 681.388 93.0331 681.388C93.0372 681.388 93.0413 681.388 93.0455 681.388C93.0496 681.388 93.0538 681.388 93.0579 681.388C93.0621 681.388 93.0662 681.388 93.0703 681.388C93.0745 681.388 93.0786 681.388 93.0827 681.388C93.0869 681.388 93.091 681.388 93.0951 681.388C93.0992 681.388 93.1034 681.388 93.1075 681.388C93.1116 681.388 93.1158 681.388 93.1199 681.388C93.124 681.388 93.1281 681.388 93.1322 681.388C93.1364 681.388 93.1405 681.388 93.1446 681.388C93.1487 681.388 93.1528 681.388 93.1569 681.388C93.1611 681.388 93.1652 681.388 93.1693 681.388C93.1734 681.388 93.1775 681.388 93.1816 681.388C93.1857 681.388 93.1898 681.388 93.1939 681.388C93.198 681.388 93.2021 681.388 93.2062 681.388C93.2103 681.388 93.2144 681.388 93.2185 681.388C93.2226 681.388 93.2267 681.388 93.2308 681.388C93.2349 681.388 93.239 681.388 93.2431 681.388C93.2472 681.388 93.2513 681.388 93.2554 681.388C93.2595 681.388 93.2635 681.388 93.2676 681.388C93.2717 681.388 93.2758 681.388 93.2799 681.388C93.284 681.388 93.2881 681.388 93.2921 681.388C93.2962 681.388 93.3003 681.388 93.3044 681.388C93.3085 681.388 93.3125 681.388 93.3166 681.388C93.3207 681.388 93.3248 681.388 93.3288 681.388C93.3329 681.388 93.337 681.388 93.341 681.388C93.3451 681.388 93.3492 681.388 93.3532 681.388C93.3573 681.388 93.3614 681.388 93.3654 681.388C93.3695 681.388 93.3735 681.388 93.3776 681.388C93.3817 681.388 93.3857 681.388 93.3898 681.388C93.3938 681.388 93.3979 681.388 93.4019 681.388C93.406 681.388 93.41 681.388 93.4141 681.388C93.4181 681.388 93.4222 681.388 93.4262 681.388C93.4303 681.388 93.4343 681.388 93.4384 681.388C93.4424 681.388 93.4465 681.388 93.4505 681.388C93.4545 681.388 93.4586 681.388 93.4626 681.388C93.4666 681.388 93.4707 681.388 93.4747 681.388C93.4788 681.388 93.4828 681.388 93.4868 681.388C93.4908 681.388 93.4949 681.388 93.4989 681.388C93.5029 681.388 93.507 681.388 93.511 681.388C93.515 681.388 93.519 681.388 93.5231 681.388C93.5271 681.388 93.5311 681.388 93.5351 681.388C93.5391 681.388 93.5432 681.388 93.5472 681.388C93.5512 681.388 93.5552 681.388 93.5592 681.388C93.5632 681.388 93.5672 681.388 93.5713 681.388C93.5753 681.388 93.5793 681.388 93.5833 681.388C93.5873 681.388 93.5913 681.388 93.5953 681.388C93.5993 681.388 93.6033 681.388 93.6073 681.388C93.6113 681.388 93.6153 681.388 93.6193 681.388C93.6233 681.388 93.6273 681.388 93.6313 681.388C93.6353 681.388 93.6393 681.388 93.6433 681.388C93.6473 681.388 93.6512 681.388 93.6552 681.388C93.6592 681.388 93.6632 681.388 93.6672 681.388C93.6712 681.388 93.6752 681.388 93.6792 681.388C93.6831 681.388 93.6871 681.388 93.6911 681.388C93.6951 681.388 93.699 681.388 93.703 681.388C93.707 681.388 93.711 681.388 93.7149 681.388C93.7189 681.388 93.7229 681.388 93.7269 681.388C93.7308 681.388 93.7348 681.388 93.7388 681.388C93.7428 681.388 93.7467 681.388 93.7507 681.388C93.7546 681.388 93.7586 681.388 93.7626 681.388C93.7665 681.388 93.7705 681.388 93.7744 681.388C93.7784 681.388 93.7824 681.388 93.7863 681.388C93.7903 681.388 93.7942 681.388 93.7982 681.388C93.8021 681.388 93.8061 681.388 93.81 681.388C93.814 681.388 93.8179 681.388 93.8219 681.388C93.8258 681.388 93.8298 681.388 93.8337 681.388C93.8376 681.388 93.8416 681.388 93.8455 681.388C93.8495 681.388 93.8534 681.388 93.8573 681.388C93.8613 681.388 93.8652 681.388 93.8691 681.388C93.8731 681.388 93.877 681.388 93.8809 681.388C93.8849 681.388 93.8888 681.388 93.8927 681.388C93.8967 681.388 93.9006 681.388 93.9045 681.388C93.9084 681.388 93.9124 681.388 93.9163 681.388C93.9202 681.388 93.9241 681.388 93.928 681.388C93.932 681.388 93.9359 681.388 93.9398 681.388C93.9437 681.388 93.9476 681.388 93.9515 681.388C93.9554 681.388 93.9593 681.388 93.9633 681.388C93.9672 681.388 93.9711 681.388 93.975 681.388C93.9789 681.388 93.9828 681.388 93.9867 681.388C93.9906 681.388 93.9945 681.388 93.9984 681.388C94.0023 681.388 94.0062 681.388 94.0101 681.388C94.014 681.388 94.0179 681.388 94.0218 681.388C94.0257 681.388 94.0296 681.388 94.0335 681.388C94.0374 681.388 94.0412 681.388 94.0451 681.388C94.049 681.388 94.0529 681.388 94.0568 681.388C94.0607 681.388 94.0646 681.388 94.0684 681.388C94.0723 681.388 94.0762 681.388 94.0801 681.388C94.084 681.388 94.0878 681.388 94.0917 681.388C94.0956 681.388 94.0995 681.388 94.1033 681.388C94.1072 681.388 94.1111 681.388 94.1149 681.388C94.1188 681.388 94.1227 681.388 94.1266 681.388C94.1304 681.388 94.1343 681.388 94.1382 681.388C94.142 681.388 94.1459 681.388 94.1497 681.388C94.1536 681.388 94.1575 681.388 94.1613 681.388C94.1652 681.388 94.169 681.388 94.1729 681.388C94.1767 681.388 94.1806 681.388 94.1844 681.388C94.1883 681.388 94.1921 681.388 94.196 681.388C94.1998 681.388 94.2037 681.388 94.2075 681.388C94.2114 681.388 94.2152 681.388 94.2191 681.388C94.2229 681.388 94.2267 681.388 94.2306 681.388C94.2344 681.388 94.2382 681.388 94.2421 681.388C94.2459 681.388 94.2498 681.388 94.2536 681.388C94.2574 681.388 94.2613 681.388 94.2651 681.388C94.2689 681.388 94.2727 681.388 94.2766 681.388C94.2804 681.388 94.2842 681.388 94.2881 681.388C94.2919 681.388 94.2957 681.388 94.2995 681.388C94.3033 681.388 94.3072 681.388 94.311 681.388C94.3148 681.388 94.3186 681.388 94.3224 681.388C94.3262 681.388 94.33 681.388 94.3339 681.388C94.3377 681.388 94.3415 681.388 94.3453 681.388C94.3491 681.388 94.3529 681.388 94.3567 681.388C94.3605 681.388 94.3643 681.388 94.3681 681.388C94.3719 681.388 94.3757 681.388 94.3795 681.388C94.3833 681.388 94.3871 681.388 94.3909 681.388C94.3947 681.388 94.3985 681.388 94.4023 681.388C94.4061 681.388 94.4099 681.388 94.4137 681.388C94.4175 681.388 94.4213 681.388 94.425 681.388C94.4288 681.388 94.4326 681.388 94.4364 681.388C94.4402 681.388 94.444 681.388 94.4478 681.388C94.4515 681.388 94.4553 681.388 94.4591 681.388C94.4629 681.388 94.4666 681.388 94.4704 681.388C94.4742 681.388 94.478 681.388 94.4817 681.388C94.4855 681.388 94.4893 681.388 94.4931 681.388C94.4968 681.388 94.5006 681.388 94.5044 681.388C94.5081 681.388 94.5119 681.388 94.5157 681.388C94.5194 681.388 94.5232 681.388 94.5269 681.388C94.5307 681.388 94.5345 681.388 94.5382 681.388C94.542 681.388 94.5457 681.388 94.5495 681.388C94.5532 681.388 94.557 681.388 94.5607 681.388C94.5645 681.388 94.5682 681.388 94.572 681.388C94.5757 681.388 94.5795 681.388 94.5832 681.388C94.587 681.388 94.5907 681.388 94.5945 681.388C94.5982 681.388 94.6019 681.388 94.6057 681.388C94.6094 681.388 94.6131 681.388 94.6169 681.388C94.6206 681.388 94.6243 681.388 94.6281 681.388C94.6318 681.388 94.6355 681.388 94.6393 681.388C94.643 681.388 94.6467 681.388 94.6505 681.388C94.6542 681.388 94.6579 681.388 94.6616 681.388C94.6654 681.388 94.6691 681.388 94.6728 681.388C94.6765 681.388 94.6802 681.388 94.6839 681.388C94.6877 681.388 94.6914 681.388 94.6951 681.388C94.6988 681.388 94.7025 681.388 94.7062 681.388C94.7099 681.388 94.7137 681.388 94.7174 681.388C94.7211 681.388 94.7248 681.388 94.7285 681.388C94.7322 681.388 94.7359 681.388 94.7396 681.388C94.7433 681.388 94.747 681.388 94.7507 681.388C94.7544 681.388 94.7581 681.388 94.7618 681.388C94.7655 681.388 94.7692 681.388 94.7729 681.388C94.7766 681.388 94.7802 681.388 94.7839 681.388C94.7876 681.388 94.7913 681.388 94.795 681.388C94.7987 681.388 94.8024 681.388 94.8061 681.388C94.8097 681.388 94.8134 681.388 94.8171 681.388C94.8208 681.388 94.8245 681.388 94.8281 681.388C94.8318 681.388 94.8355 681.388 94.8392 681.388C94.8428 681.388 94.8465 681.388 94.8502 681.388C94.8538 681.388 94.8575 681.388 94.8612 681.388C94.8649 681.388 94.8685 681.388 94.8722 681.388C94.8759 681.388 94.8795 681.388 94.8832 681.388C94.8869 681.388 94.8905 681.388 94.8942 681.388C94.8978 681.388 94.9015 681.388 94.9051 681.388C94.9088 681.388 94.9124 681.388 94.9161 681.388C94.9198 681.388 94.9234 681.388 94.9271 681.388C94.9307 681.388 94.9344 681.388 94.938 681.388C94.9416 681.388 94.9453 681.388 94.9489 681.388C94.9526 681.388 94.9562 681.388 94.9599 681.388C94.9635 681.388 94.9671 681.388 94.9708 681.388C94.9744 681.388 94.9781 681.388 94.9817 681.388C94.9853 681.388 94.989 681.388 94.9926 681.388C94.9962 681.388 94.9998 681.388 95.0035 681.388C95.0071 681.388 95.0107 681.388 95.0144 681.388C95.018 681.388 95.0216 681.388 95.0252 681.388C95.0289 681.388 95.0325 681.388 95.0361 681.388C95.0397 681.388 95.0433 681.388 95.0469 681.388C95.0506 681.388 95.0542 681.388 95.0578 681.388C95.0614 681.388 95.065 681.388 95.0686 681.388C95.0722 681.388 95.0758 681.388 95.0795 681.388C95.0831 681.388 95.0867 681.388 95.0903 681.388C95.0939 681.388 95.0975 681.388 95.1011 681.388C95.1047 681.388 95.1083 681.388 95.1119 681.388C95.1155 681.388 95.1191 681.388 95.1227 681.388C95.1263 681.388 95.1299 681.388 95.1335 681.388C95.137 681.388 95.1406 681.388 95.1442 681.388C95.1478 681.388 95.1514 681.388 95.155 681.388C95.1586 681.388 95.1622 681.388 95.1657 681.388C95.1693 681.388 95.1729 681.388 95.1765 681.388C95.1801 681.388 95.1836 681.388 95.1872 681.388C95.1908 681.388 95.1944 681.388 95.1979 681.388C95.2015 681.388 95.2051 681.388 95.2087 681.388C95.2122 681.388 95.2158 681.388 95.2194 681.388C95.2229 681.388 95.2265 681.388 95.2301 681.388C95.2336 681.388 95.2372 681.388 95.2408 681.388C95.2443 681.388 95.2479 681.388 95.2514 681.388C95.255 681.388 95.2585 681.388 95.2621 681.388C95.2657 681.388 95.2692 681.388 95.2728 681.388C95.2763 681.388 95.2799 681.388 95.2834 681.388C95.287 681.388 95.2905 681.388 95.2941 681.388C95.2976 681.388 95.3011 681.388 95.3047 681.388C95.3082 681.388 95.3118 681.388 95.3153 681.388C95.3189 681.388 95.3224 681.388 95.3259 681.388C95.3295 681.388 95.333 681.388 95.3365 681.388C95.3401 681.388 95.3436 681.388 95.3471 681.388C95.3507 681.388 95.3542 681.388 95.3577 681.388C95.3613 681.388 95.3648 681.388 95.3683 681.388C95.3718 681.388 95.3753 681.388 95.3789 681.388C95.3824 681.388 95.3859 681.388 95.3894 681.388C95.3929 681.388 95.3965 681.388 95.4 681.388C95.4035 681.388 95.407 681.388 95.4105 681.388C95.414 681.388 95.4176 681.388 95.4211 681.388C95.4246 681.388 95.4281 681.388 95.4316 681.388C95.4351 681.388 95.4386 681.388 95.4421 681.388C95.4456 681.388 95.4491 681.388 95.4526 681.388C95.4561 681.388 95.4596 681.388 95.4631 681.388C95.4666 681.388 95.4701 681.388 95.4736 681.388C95.4771 681.388 95.4806 681.388 95.4841 681.388C95.4876 681.388 95.491 681.388 95.4945 681.388C95.498 681.388 95.5015 681.388 95.505 681.388C95.5085 681.388 95.512 681.388 95.5154 681.388C95.5189 681.388 95.5224 681.388 95.5259 681.388C95.5294 681.388 95.5328 681.388 95.5363 681.388C95.5398 681.388 95.5433 681.388 95.5467 681.388C95.5502 681.388 95.5537 681.388 95.5572 681.388C95.5606 681.388 95.5641 681.388 95.5676 681.388C95.571 681.388 95.5745 681.388 95.578 681.388C95.5814 681.388 95.5849 681.388 95.5883 681.388C95.5918 681.388 95.5953 681.388 95.5987 681.388C95.6022 681.388 95.6056 681.388 95.6091 681.388C95.6125 681.388 95.616 681.388 95.6194 681.388C95.6229 681.388 95.6264 681.388 95.6298 681.388C95.6333 681.388 95.6367 681.388 95.6401 681.388C95.6436 681.388 95.647 681.388 95.6505 681.388C95.6539 681.388 95.6573 681.388 95.6608 681.388C95.6642 681.388 95.6677 681.388 95.6711 681.388C95.6745 681.388 95.678 681.388 95.6814 681.388C95.6848 681.388 95.6883 681.388 95.6917 681.388C95.6951 681.388 95.6986 681.388 95.702 681.388C95.7054 681.388 95.7088 681.388 95.7123 681.388C95.7157 681.388 95.7191 681.388 95.7225 681.388C95.726 681.388 95.7294 681.388 95.7328 681.388C95.7362 681.388 95.7396 681.388 95.743 681.388C95.7465 681.388 95.7499 681.388 95.7533 681.388C95.7567 681.388 95.7601 681.388 95.7635 681.388C95.7669 681.388 95.7703 681.388 95.7737 681.388C95.7771 681.388 95.7805 681.388 95.7839 681.388C95.7874 681.388 95.7908 681.388 95.7942 681.388C95.7976 681.388 95.8009 681.388 95.8044 681.388C95.8077 681.388 95.8111 681.388 95.8145 681.388C95.8179 681.388 95.8213 681.388 95.8247 681.388C95.8281 681.388 95.8315 681.388 95.8349 681.388C95.8383 681.388 95.8416 681.388 95.845 681.388C95.8484 681.388 95.8518 681.388 95.8552 681.388C95.8586 681.388 95.8619 681.388 95.8653 681.388C95.8687 681.388 95.8721 681.388 95.8755 681.388C95.8788 681.388 95.8822 681.388 95.8856 681.388C95.8889 681.388 95.8923 681.388 95.8957 681.388C95.8991 681.388 95.9024 681.388 95.9058 681.388C95.9091 681.388 95.9125 681.388 95.9159 681.388C95.9192 681.388 95.9226 681.388 95.926 681.388C95.9293 681.388 95.9327 681.388 95.936 681.388C95.9394 681.388 95.9427 681.388 95.9461 681.388C95.9495 681.388 95.9528 681.388 95.9562 681.388C95.9595 681.388 95.9629 681.388 95.9662 681.388C95.9696 681.388 95.9729 681.388 95.9763 681.388C95.9796 681.388 95.9829 681.388 95.9863 681.388C95.9896 681.388 95.993 681.388 95.9963 681.388C95.9996 681.388 96.003 681.388 96.0063 681.388C96.0096 681.388 96.013 681.388 96.0163 681.388C96.0197 681.388 96.023 681.388 96.0263 681.388C96.0296 681.388 96.033 681.388 96.0363 681.388C96.0396 681.388 96.0429 681.388 96.0463 681.388C96.0496 681.388 96.0529 681.388 96.0562 681.388C96.0596 681.388 96.0629 681.388 96.0662 681.388C96.0695 681.388 96.0728 681.388 96.0761 681.388C96.0795 681.388 96.0828 681.388 96.0861 681.388C96.0894 681.388 96.0927 681.388 96.096 681.388C96.0993 681.388 96.1026 681.388 96.1059 681.388C96.1092 681.388 96.1125 681.388 96.1158 681.388C96.1191 681.388 96.1224 681.388 96.1257 681.388C96.129 681.388 96.1323 681.388 96.1356 681.388C96.1389 681.388 96.1422 681.388 96.1455 681.388C96.1488 681.388 96.1521 681.388 96.1554 681.388C96.1587 681.388 96.162 681.388 96.1653 681.388C96.1685 681.388 96.1718 681.388 96.1751 681.388C96.1784 681.388 96.1817 681.388 96.185 681.388C96.1882 681.388 96.1915 681.388 96.1948 681.388C96.1981 681.388 96.2013 681.388 96.2046 681.388C96.2079 681.388 96.2112 681.388 96.2144 681.388C96.2177 681.388 96.221 681.388 96.2242 681.388C96.2275 681.388 96.2308 681.388 96.2341 681.388C96.2373 681.388 96.2406 681.388 96.2438 681.388C96.2471 681.388 96.2504 681.388 96.2536 681.388C96.2569 681.388 96.2601 681.388 96.2634 681.388C96.2666 681.388 96.2699 681.388 96.2732 681.388C96.2764 681.388 96.2797 681.388 96.2829 681.388C96.2862 681.388 96.2894 681.388 96.2927 681.388C96.2959 681.388 96.2991 681.388 96.3024 681.388C96.3056 681.388 96.3089 681.388 96.3121 681.388C96.3154 681.388 96.3186 681.388 96.3218 681.388C96.3251 681.388 96.3283 681.388 96.3316 681.388C96.3348 681.388 96.338 681.388 96.3412 681.388C96.3445 681.388 96.3477 681.388 96.3509 681.388C96.3542 681.388 96.3574 681.388 96.3606 681.388C96.3638 681.388 96.3671 681.388 96.3703 681.388C96.3735 681.388 96.3767 681.388 96.38 681.388C96.3832 681.388 96.3864 681.388 96.3896 681.388C96.3928 681.388 96.396 681.388 96.3993 681.388C96.4025 681.388 96.4057 681.388 96.4089 681.388C96.4121 681.388 96.4153 681.388 96.4185 681.388C96.4217 681.388 96.4249 681.388 96.4281 681.388C96.4313 681.388 96.4345 681.388 96.4377 681.388C96.4409 681.388 96.4442 681.388 96.4473 681.388C96.4505 681.388 96.4537 681.388 96.4569 681.388C96.4601 681.388 96.4633 681.388 96.4665 681.388C96.4697 681.388 96.4729 681.388 96.4761 681.388C96.4793 681.388 96.4825 681.388 96.4857 681.388C96.4888 681.388 96.492 681.388 96.4952 681.388C96.4984 681.388 96.5016 681.388 96.5047 681.388C96.5079 681.388 96.5111 681.388 96.5143 681.388C96.5175 681.388 96.5206 681.388 96.5238 681.388C96.527 681.388 96.5301 681.388 96.5333 681.388C96.5365 681.388 96.5397 681.388 96.5428 681.388C96.546 681.388 96.5492 681.388 96.5523 681.388C96.5555 681.388 96.5587 681.388 96.5618 681.388C96.565 681.388 96.5681 681.388 96.5713 681.388C96.5745 681.388 96.5776 681.388 96.5808 681.388C96.5839 681.388 96.5871 681.388 96.5902 681.388C96.5934 681.388 96.5965 681.388 96.5997 681.388C96.6028 681.388 96.606 681.388 96.6091 681.388C96.6123 681.388 96.6154 681.388 96.6186 681.388C96.6217 681.388 96.6248 681.388 96.628 681.388C96.6311 681.388 96.6343 681.388 96.6374 681.388C96.6405 681.388 96.6437 681.388 96.6468 681.388C96.6499 681.388 96.6531 681.388 96.6562 681.388C96.6593 681.388 96.6625 681.388 96.6656 681.388C96.6687 681.388 96.6719 681.388 96.675 681.388C96.6781 681.388 96.6812 681.388 96.6844 681.388C96.6875 681.388 96.6906 681.388 96.6937 681.388C96.6968 681.388 96.6999 681.388 96.7031 681.388C96.7062 681.388 96.7093 681.388 96.7124 681.388C96.7155 681.388 96.7186 681.388 96.7217 681.388C96.7249 681.388 96.728 681.388 96.7311 681.388C96.7342 681.388 96.7373 681.388 96.7404 681.388C96.7435 681.388 96.7466 681.388 96.7497 681.388C96.7528 681.388 96.7559 681.388 96.759 681.388C96.7621 681.388 96.7652 681.388 96.7683 681.388C96.7714 681.388 96.7745 681.388 96.7776 681.388C96.7806 681.388 96.7837 681.388 96.7868 681.388C96.7899 681.388 96.793 681.388 96.7961 681.388C96.7992 681.388 96.8023 681.388 96.8053 681.388C96.8084 681.388 96.8115 681.388 96.8146 681.388C96.8177 681.388 96.8207 681.388 96.8238 681.388C96.8269 681.388 96.83 681.388 96.833 681.388C96.8361 681.388 96.8392 681.388 96.8423 681.388C96.8453 681.388 96.8484 681.388 96.8515 681.388C96.8545 681.388 96.8576 681.388 96.8607 681.388C96.8637 681.388 96.8668 681.388 96.8698 681.388C96.8729 681.388 96.876 681.388 96.879 681.388C96.8821 681.388 96.8851 681.388 96.8882 681.388C96.8912 681.388 96.8943 681.388 96.8974 681.388C96.9004 681.388 96.9034 681.388 96.9065 681.388C96.9095 681.388 96.9126 681.388 96.9156 681.388C96.9187 681.388 96.9217 681.388 96.9248 681.388C96.9278 681.388 96.9309 681.388 96.9339 681.388C96.9369 681.388 96.94 681.388 96.943 681.388C96.946 681.388 96.9491 681.388 96.9521 681.388C96.9552 681.388 96.9582 681.388 96.9612 681.388C96.9642 681.388 96.9673 681.388 96.9703 681.388C96.9733 681.388 96.9763 681.388 96.9794 681.388C96.9824 681.388 96.9854 681.388 96.9884 681.388C96.9915 681.388 96.9945 681.388 96.9975 681.388C97.0005 681.388 97.0035 681.388 97.0065 681.388C97.0096 681.388 97.0126 681.388 97.0156 681.388C97.0186 681.388 97.0216 681.388 97.0246 681.388C97.0276 681.388 97.0306 681.388 97.0336 681.388C97.0367 681.388 97.0397 681.388 97.0427 681.388C97.0457 681.388 97.0487 681.388 97.0517 681.388C97.0547 681.388 97.0577 681.388 97.0607 681.388C97.0637 681.388 97.0666 681.388 97.0696 681.388C97.0726 681.388 97.0756 681.388 97.0786 681.388C97.0816 681.388 97.0846 681.388 97.0876 681.388C97.0906 681.388 97.0936 681.388 97.0965 681.388C97.0995 681.388 97.1025 681.388 97.1055 681.388C97.1085 681.388 97.1115 681.388 97.1144 681.388C97.1174 681.388 97.1204 681.388 97.1234 681.388C97.1263 681.388 97.1293 681.388 97.1323 681.388C97.1353 681.388 97.1382 681.388 97.1412 681.388C97.1442 681.388 97.1471 681.388 97.1501 681.388C97.1531 681.388 97.156 681.388 97.159 681.388C97.162 681.388 97.1649 681.388 97.1679 681.388C97.1709 681.388 97.1738 681.388 97.1768 681.388C97.1797 681.388 97.1827 681.388 97.1856 681.388C97.1886 681.388 97.1915 681.388 97.1945 681.388C97.1974 681.388 97.2004 681.388 97.2033 681.388C97.2063 681.388 97.2092 681.388 97.2122 681.388C97.2151 681.388 97.2181 681.388 97.221 681.388C97.224 681.388 97.2269 681.388 97.2298 681.388C97.2328 681.388 97.2357 681.388 97.2386 681.388C97.2416 681.388 97.2445 681.388 97.2474 681.388C97.2504 681.388 97.2533 681.388 97.2562 681.388C97.2592 681.388 97.2621 681.388 97.265 681.388C97.2679 681.388 97.2709 681.388 97.2738 681.388C97.2767 681.388 97.2796 681.388 97.2826 681.388C97.2855 681.388 97.2884 681.388 97.2913 681.388C97.2942 681.388 97.2971 681.388 97.3001 681.388C97.303 681.388 97.3059 681.388 97.3088 681.388C97.3117 681.388 97.3146 681.388 97.3175 681.388C97.3204 681.388 97.3233 681.388 97.3262 681.388C97.3292 681.388 97.3321 681.388 97.335 681.388C97.3379 681.388 97.3408 681.388 97.3437 681.388C97.3466 681.388 97.3495 681.388 97.3524 681.388C97.3553 681.388 97.3582 681.388 97.361 681.388C97.3639 681.388 97.3668 681.388 97.3697 681.388C97.3726 681.388 97.3755 681.388 97.3784 681.388C97.3813 681.388 97.3842 681.388 97.387 681.388C97.3899 681.388 97.3928 681.388 97.3957 681.388C97.3986 681.388 97.4014 681.388 97.4043 681.388C97.4072 681.388 97.4101 681.388 97.4129 681.388C97.4158 681.388 97.4187 681.388 97.4216 681.388C97.4244 681.388 97.4273 681.388 97.4302 681.388C97.4331 681.388 97.4359 681.388 97.4388 681.388C97.4416 681.388 97.4445 681.388 97.4474 681.388C97.4502 681.388 97.4531 681.388 97.456 681.388C97.4588 681.388 97.4617 681.388 97.4645 681.388C97.4674 681.388 97.4702 681.388 97.4731 681.388C97.476 681.388 97.4788 681.388 97.4817 681.388C97.4845 681.388 97.4873 681.388 97.4902 681.388C97.493 681.388 97.4959 681.388 97.4987 681.388C97.5016 681.388 97.5044 681.388 97.5073 681.388C97.5101 681.388 97.513 681.388 97.5158 681.388C97.5186 681.388 97.5215 681.388 97.5243 681.388C97.5271 681.388 97.53 681.388 97.5328 681.388C97.5356 681.388 97.5385 681.388 97.5413 681.388C97.5441 681.388 97.5469 681.388 97.5498 681.388C97.5526 681.388 97.5554 681.388 97.5582 681.388C97.5611 681.388 97.5639 681.388 97.5667 681.388C97.5695 681.388 97.5723 681.388 97.5752 681.388C97.578 681.388 97.5808 681.388 97.5836 681.388C97.5864 681.388 97.5892 681.388 97.592 681.388C97.5948 681.388 97.5977 681.388 97.6005 681.388C97.6033 681.388 97.6061 681.388 97.6089 681.388C97.6117 681.388 97.6145 681.388 97.6173 681.388C97.6201 681.388 97.6229 681.388 97.6257 681.388C97.6285 681.388 97.6313 681.388 97.6341 681.388C97.6369 681.388 97.6397 681.388 97.6425 681.388C97.6453 681.388 97.6481 681.388 97.6508 681.388C97.6536 681.388 97.6564 681.388 97.6592 681.388C97.662 681.388 97.6648 681.388 97.6676 681.388C97.6703 681.388 97.6731 681.388 97.6759 681.388C97.6787 681.388 97.6815 681.388 97.6842 681.388C97.687 681.388 97.6898 681.388 97.6926 681.388C97.6953 681.388 97.6981 681.388 97.7009 681.388C97.7037 681.388 97.7064 681.388 97.7092 681.388C97.712 681.388 97.7147 681.388 97.7175 681.388C97.7203 681.388 97.723 681.388 97.7258 681.388C97.7285 681.388 97.7313 681.388 97.7341 681.388C97.7368 681.388 97.7396 681.388 97.7423 681.388C97.7451 681.388 97.7478 681.388 97.7506 681.388C97.7534 681.388 97.7561 681.388 97.7588 681.388C97.7616 681.388 97.7644 681.388 97.7671 681.388C97.7699 681.388 97.7726 681.388 97.7753 681.388C97.7781 681.388 97.7808 681.388 97.7836 681.388C97.7863 681.388 97.789 681.388 97.7918 681.388C97.7945 681.388 97.7973 681.388 97.8 681.388L97.8 679.388C97.7973 679.388 97.7945 679.388 97.7918 679.388C97.789 679.388 97.7863 679.388 97.7836 679.388C97.7808 679.388 97.7781 679.388 97.7753 679.388C97.7726 679.388 97.7699 679.388 97.7671 679.388C97.7644 679.388 97.7616 679.388 97.7588 679.388C97.7561 679.388 97.7534 679.388 97.7506 679.388C97.7478 679.388 97.7451 679.388 97.7423 679.388C97.7396 679.388 97.7368 679.388 97.7341 679.388C97.7313 679.388 97.7285 679.388 97.7258 679.388C97.723 679.388 97.7203 679.388 97.7175 679.388C97.7147 679.388 97.712 679.388 97.7092 679.388C97.7064 679.388 97.7037 679.388 97.7009 679.388C97.6981 679.388 97.6953 679.388 97.6926 679.388C97.6898 679.388 97.687 679.388 97.6842 679.388C97.6815 679.388 97.6787 679.388 97.6759 679.388C97.6731 679.388 97.6703 679.388 97.6676 679.388C97.6648 679.388 97.662 679.388 97.6592 679.388C97.6564 679.388 97.6536 679.388 97.6508 679.388C97.6481 679.388 97.6453 679.388 97.6425 679.388C97.6397 679.388 97.6369 679.388 97.6341 679.388C97.6313 679.388 97.6285 679.388 97.6257 679.388C97.6229 679.388 97.6201 679.388 97.6173 679.388C97.6145 679.388 97.6117 679.388 97.6089 679.388C97.6061 679.388 97.6033 679.388 97.6005 679.388C97.5977 679.388 97.5948 679.388 97.592 679.388C97.5892 679.388 97.5864 679.388 97.5836 679.388C97.5808 679.388 97.578 679.388 97.5752 679.388C97.5723 679.388 97.5695 679.388 97.5667 679.388C97.5639 679.388 97.5611 679.388 97.5582 679.388C97.5554 679.388 97.5526 679.388 97.5498 679.388C97.5469 679.388 97.5441 679.388 97.5413 679.388C97.5385 679.388 97.5356 679.388 97.5328 679.388C97.53 679.388 97.5271 679.388 97.5243 679.388C97.5215 679.388 97.5186 679.388 97.5158 679.388C97.513 679.388 97.5101 679.388 97.5073 679.388C97.5044 679.388 97.5016 679.388 97.4987 679.388C97.4959 679.388 97.493 679.388 97.4902 679.388C97.4873 679.388 97.4845 679.388 97.4817 679.388C97.4788 679.388 97.476 679.388 97.4731 679.388C97.4702 679.388 97.4674 679.388 97.4645 679.388C97.4617 679.388 97.4588 679.388 97.456 679.388C97.4531 679.388 97.4502 679.388 97.4474 679.388C97.4445 679.388 97.4416 679.388 97.4388 679.388C97.4359 679.388 97.4331 679.388 97.4302 679.388C97.4273 679.388 97.4244 679.388 97.4216 679.388C97.4187 679.388 97.4158 679.388 97.4129 679.388C97.4101 679.388 97.4072 679.388 97.4043 679.388C97.4014 679.388 97.3986 679.388 97.3957 679.388C97.3928 679.388 97.3899 679.388 97.387 679.388C97.3842 679.388 97.3813 679.388 97.3784 679.388C97.3755 679.388 97.3726 679.388 97.3697 679.388C97.3668 679.388 97.3639 679.388 97.361 679.388C97.3582 679.388 97.3553 679.388 97.3524 679.388C97.3495 679.388 97.3466 679.388 97.3437 679.388C97.3408 679.388 97.3379 679.388 97.335 679.388C97.3321 679.388 97.3292 679.388 97.3262 679.388C97.3233 679.388 97.3204 679.388 97.3175 679.388C97.3146 679.388 97.3117 679.388 97.3088 679.388C97.3059 679.388 97.303 679.388 97.3001 679.388C97.2971 679.388 97.2942 679.388 97.2913 679.388C97.2884 679.388 97.2855 679.388 97.2826 679.388C97.2796 679.388 97.2767 679.388 97.2738 679.388C97.2709 679.388 97.2679 679.388 97.265 679.388C97.2621 679.388 97.2592 679.388 97.2562 679.388C97.2533 679.388 97.2504 679.388 97.2474 679.388C97.2445 679.388 97.2416 679.388 97.2386 679.388C97.2357 679.388 97.2328 679.388 97.2298 679.388C97.2269 679.388 97.224 679.388 97.221 679.388C97.2181 679.388 97.2151 679.388 97.2122 679.388C97.2092 679.388 97.2063 679.388 97.2033 679.388C97.2004 679.388 97.1974 679.388 97.1945 679.388C97.1915 679.388 97.1886 679.388 97.1856 679.388C97.1827 679.388 97.1797 679.388 97.1768 679.388C97.1738 679.388 97.1709 679.388 97.1679 679.388C97.1649 679.388 97.162 679.388 97.159 679.388C97.156 679.388 97.1531 679.388 97.1501 679.388C97.1471 679.388 97.1442 679.388 97.1412 679.388C97.1382 679.388 97.1353 679.388 97.1323 679.388C97.1293 679.388 97.1263 679.388 97.1234 679.388C97.1204 679.388 97.1174 679.388 97.1144 679.388C97.1115 679.388 97.1085 679.388 97.1055 679.388C97.1025 679.388 97.0995 679.388 97.0965 679.388C97.0936 679.388 97.0906 679.388 97.0876 679.388C97.0846 679.388 97.0816 679.388 97.0786 679.388C97.0756 679.388 97.0726 679.388 97.0696 679.388C97.0666 679.388 97.0637 679.388 97.0607 679.388C97.0577 679.388 97.0547 679.388 97.0517 679.388C97.0487 679.388 97.0457 679.388 97.0427 679.388C97.0397 679.388 97.0366 679.388 97.0336 679.388C97.0306 679.388 97.0276 679.388 97.0246 679.388C97.0216 679.388 97.0186 679.388 97.0156 679.388C97.0126 679.388 97.0096 679.388 97.0065 679.388C97.0035 679.388 97.0005 679.388 96.9975 679.388C96.9945 679.388 96.9915 679.388 96.9884 679.388C96.9854 679.388 96.9824 679.388 96.9794 679.388C96.9763 679.388 96.9733 679.388 96.9703 679.388C96.9673 679.388 96.9642 679.388 96.9612 679.388C96.9582 679.388 96.9552 679.388 96.9521 679.388C96.9491 679.388 96.946 679.388 96.943 679.388C96.94 679.388 96.9369 679.388 96.9339 679.388C96.9309 679.388 96.9278 679.388 96.9248 679.388C96.9217 679.388 96.9187 679.388 96.9156 679.388C96.9126 679.388 96.9095 679.388 96.9065 679.388C96.9034 679.388 96.9004 679.388 96.8974 679.388C96.8943 679.388 96.8912 679.388 96.8882 679.388C96.8851 679.388 96.8821 679.388 96.879 679.388C96.876 679.388 96.8729 679.388 96.8698 679.388C96.8668 679.388 96.8637 679.388 96.8607 679.388C96.8576 679.388 96.8545 679.388 96.8515 679.388C96.8484 679.388 96.8453 679.388 96.8423 679.388C96.8392 679.388 96.8361 679.388 96.833 679.388C96.83 679.388 96.8269 679.388 96.8238 679.388C96.8207 679.388 96.8177 679.388 96.8146 679.388C96.8115 679.388 96.8084 679.388 96.8053 679.388C96.8023 679.388 96.7992 679.388 96.7961 679.388C96.793 679.388 96.7899 679.388 96.7868 679.388C96.7837 679.388 96.7806 679.388 96.7776 679.388C96.7745 679.388 96.7714 679.388 96.7683 679.388C96.7652 679.388 96.7621 679.388 96.759 679.388C96.7559 679.388 96.7528 679.388 96.7497 679.388C96.7466 679.388 96.7435 679.388 96.7404 679.388C96.7373 679.388 96.7342 679.388 96.7311 679.388C96.728 679.388 96.7249 679.388 96.7217 679.388C96.7186 679.388 96.7155 679.388 96.7124 679.388C96.7093 679.388 96.7062 679.388 96.7031 679.388C96.6999 679.388 96.6968 679.388 96.6937 679.388C96.6906 679.388 96.6875 679.388 96.6844 679.388C96.6812 679.388 96.6781 679.388 96.675 679.388C96.6719 679.388 96.6687 679.388 96.6656 679.388C96.6625 679.388 96.6593 679.388 96.6562 679.388C96.6531 679.388 96.6499 679.388 96.6468 679.388C96.6437 679.388 96.6405 679.388 96.6374 679.388C96.6343 679.388 96.6311 679.388 96.628 679.388C96.6248 679.388 96.6217 679.388 96.6186 679.388C96.6154 679.388 96.6123 679.388 96.6091 679.388C96.606 679.388 96.6028 679.388 96.5997 679.388C96.5965 679.388 96.5934 679.388 96.5902 679.388C96.5871 679.388 96.5839 679.388 96.5808 679.388C96.5776 679.388 96.5745 679.388 96.5713 679.388C96.5681 679.388 96.565 679.388 96.5618 679.388C96.5587 679.388 96.5555 679.388 96.5523 679.388C96.5492 679.388 96.546 679.388 96.5428 679.388C96.5397 679.388 96.5365 679.388 96.5333 679.388C96.5301 679.388 96.527 679.388 96.5238 679.388C96.5206 679.388 96.5175 679.388 96.5143 679.388C96.5111 679.388 96.5079 679.388 96.5047 679.388C96.5016 679.388 96.4984 679.388 96.4952 679.388C96.492 679.388 96.4888 679.388 96.4857 679.388C96.4825 679.388 96.4793 679.388 96.4761 679.388C96.4729 679.388 96.4697 679.388 96.4665 679.388C96.4633 679.388 96.4601 679.388 96.4569 679.388C96.4537 679.388 96.4505 679.388 96.4473 679.388C96.4442 679.388 96.4409 679.388 96.4377 679.388C96.4345 679.388 96.4313 679.388 96.4281 679.388C96.4249 679.388 96.4217 679.388 96.4185 679.388C96.4153 679.388 96.4121 679.388 96.4089 679.388C96.4057 679.388 96.4025 679.388 96.3993 679.388C96.396 679.388 96.3928 679.388 96.3896 679.388C96.3864 679.388 96.3832 679.388 96.38 679.388C96.3767 679.388 96.3735 679.388 96.3703 679.388C96.3671 679.388 96.3638 679.388 96.3606 679.388C96.3574 679.388 96.3542 679.388 96.3509 679.388C96.3477 679.388 96.3445 679.388 96.3412 679.388C96.338 679.388 96.3348 679.388 96.3316 679.388C96.3283 679.388 96.3251 679.388 96.3218 679.388C96.3186 679.388 96.3154 679.388 96.3121 679.388C96.3089 679.388 96.3056 679.388 96.3024 679.388C96.2991 679.388 96.2959 679.388 96.2927 679.388C96.2894 679.388 96.2862 679.388 96.2829 679.388C96.2797 679.388 96.2764 679.388 96.2732 679.388C96.2699 679.388 96.2666 679.388 96.2634 679.388C96.2601 679.388 96.2569 679.388 96.2536 679.388C96.2504 679.388 96.2471 679.388 96.2438 679.388C96.2406 679.388 96.2373 679.388 96.2341 679.388C96.2308 679.388 96.2275 679.388 96.2242 679.388C96.221 679.388 96.2177 679.388 96.2144 679.388C96.2112 679.388 96.2079 679.388 96.2046 679.388C96.2013 679.388 96.1981 679.388 96.1948 679.388C96.1915 679.388 96.1882 679.388 96.185 679.388C96.1817 679.388 96.1784 679.388 96.1751 679.388C96.1718 679.388 96.1685 679.388 96.1653 679.388C96.162 679.388 96.1587 679.388 96.1554 679.388C96.1521 679.388 96.1488 679.388 96.1455 679.388C96.1422 679.388 96.1389 679.388 96.1356 679.388C96.1323 679.388 96.129 679.388 96.1257 679.388C96.1224 679.388 96.1191 679.388 96.1158 679.388C96.1125 679.388 96.1092 679.388 96.1059 679.388C96.1026 679.388 96.0993 679.388 96.096 679.388C96.0927 679.388 96.0894 679.388 96.0861 679.388C96.0828 679.388 96.0795 679.388 96.0761 679.388C96.0728 679.388 96.0695 679.388 96.0662 679.388C96.0629 679.388 96.0596 679.388 96.0562 679.388C96.0529 679.388 96.0496 679.388 96.0463 679.388C96.0429 679.388 96.0396 679.388 96.0363 679.388C96.033 679.388 96.0296 679.388 96.0263 679.388C96.023 679.388 96.0197 679.388 96.0163 679.388C96.013 679.388 96.0096 679.388 96.0063 679.388C96.003 679.388 95.9996 679.388 95.9963 679.388C95.993 679.388 95.9896 679.388 95.9863 679.388C95.9829 679.388 95.9796 679.388 95.9763 679.388C95.9729 679.388 95.9696 679.388 95.9662 679.388C95.9629 679.388 95.9595 679.388 95.9562 679.388C95.9528 679.388 95.9495 679.388 95.9461 679.388C95.9427 679.388 95.9394 679.388 95.936 679.388C95.9327 679.388 95.9293 679.388 95.926 679.388C95.9226 679.388 95.9192 679.388 95.9159 679.388C95.9125 679.388 95.9091 679.388 95.9058 679.388C95.9024 679.388 95.8991 679.388 95.8957 679.388C95.8923 679.388 95.8889 679.388 95.8856 679.388C95.8822 679.388 95.8788 679.388 95.8755 679.388C95.8721 679.388 95.8687 679.388 95.8653 679.388C95.8619 679.388 95.8586 679.388 95.8552 679.388C95.8518 679.388 95.8484 679.388 95.845 679.388C95.8416 679.388 95.8383 679.388 95.8349 679.388C95.8315 679.388 95.8281 679.388 95.8247 679.388C95.8213 679.388 95.8179 679.388 95.8145 679.388C95.8111 679.388 95.8077 679.388 95.8044 679.388C95.8009 679.388 95.7976 679.388 95.7942 679.388C95.7908 679.388 95.7874 679.388 95.7839 679.388C95.7805 679.388 95.7771 679.388 95.7737 679.388C95.7703 679.388 95.7669 679.388 95.7635 679.388C95.7601 679.388 95.7567 679.388 95.7533 679.388C95.7499 679.388 95.7465 679.388 95.743 679.388C95.7396 679.388 95.7362 679.388 95.7328 679.388C95.7294 679.388 95.726 679.388 95.7225 679.388C95.7191 679.388 95.7157 679.388 95.7123 679.388C95.7088 679.388 95.7054 679.388 95.702 679.388C95.6986 679.388 95.6951 679.388 95.6917 679.388C95.6883 679.388 95.6848 679.388 95.6814 679.388C95.678 679.388 95.6745 679.388 95.6711 679.388C95.6677 679.388 95.6642 679.388 95.6608 679.388C95.6573 679.388 95.6539 679.388 95.6505 679.388C95.647 679.388 95.6436 679.388 95.6401 679.388C95.6367 679.388 95.6333 679.388 95.6298 679.388C95.6264 679.388 95.6229 679.388 95.6194 679.388C95.616 679.388 95.6125 679.388 95.6091 679.388C95.6056 679.388 95.6022 679.388 95.5987 679.388C95.5953 679.388 95.5918 679.388 95.5883 679.388C95.5849 679.388 95.5814 679.388 95.578 679.388C95.5745 679.388 95.571 679.388 95.5676 679.388C95.5641 679.388 95.5606 679.388 95.5572 679.388C95.5537 679.388 95.5502 679.388 95.5467 679.388C95.5433 679.388 95.5398 679.388 95.5363 679.388C95.5328 679.388 95.5294 679.388 95.5259 679.388C95.5224 679.388 95.5189 679.388 95.5154 679.388C95.512 679.388 95.5085 679.388 95.505 679.388C95.5015 679.388 95.498 679.388 95.4945 679.388C95.491 679.388 95.4876 679.388 95.4841 679.388C95.4806 679.388 95.4771 679.388 95.4736 679.388C95.4701 679.388 95.4666 679.388 95.4631 679.388C95.4596 679.388 95.4561 679.388 95.4526 679.388C95.4491 679.388 95.4456 679.388 95.4421 679.388C95.4386 679.388 95.4351 679.388 95.4316 679.388C95.4281 679.388 95.4246 679.388 95.4211 679.388C95.4176 679.388 95.414 679.388 95.4105 679.388C95.407 679.388 95.4035 679.388 95.4 679.388C95.3965 679.388 95.3929 679.388 95.3894 679.388C95.3859 679.388 95.3824 679.388 95.3789 679.388C95.3753 679.388 95.3718 679.388 95.3683 679.388C95.3648 679.388 95.3613 679.388 95.3577 679.388C95.3542 679.388 95.3507 679.388 95.3471 679.388C95.3436 679.388 95.3401 679.388 95.3365 679.388C95.333 679.388 95.3295 679.388 95.3259 679.388C95.3224 679.388 95.3189 679.388 95.3153 679.388C95.3118 679.388 95.3082 679.388 95.3047 679.388C95.3011 679.388 95.2976 679.388 95.2941 679.388C95.2905 679.388 95.287 679.388 95.2834 679.388C95.2799 679.388 95.2763 679.388 95.2728 679.388C95.2692 679.388 95.2657 679.388 95.2621 679.388C95.2585 679.388 95.255 679.388 95.2514 679.388C95.2479 679.388 95.2443 679.388 95.2408 679.388C95.2372 679.388 95.2336 679.388 95.2301 679.388C95.2265 679.388 95.2229 679.388 95.2194 679.388C95.2158 679.388 95.2122 679.388 95.2087 679.388C95.2051 679.388 95.2015 679.388 95.1979 679.388C95.1944 679.388 95.1908 679.388 95.1872 679.388C95.1836 679.388 95.1801 679.388 95.1765 679.388C95.1729 679.388 95.1693 679.388 95.1657 679.388C95.1622 679.388 95.1586 679.388 95.155 679.388C95.1514 679.388 95.1478 679.388 95.1442 679.388C95.1406 679.388 95.137 679.388 95.1335 679.388C95.1299 679.388 95.1263 679.388 95.1227 679.388C95.1191 679.388 95.1155 679.388 95.1119 679.388C95.1083 679.388 95.1047 679.388 95.1011 679.388C95.0975 679.388 95.0939 679.388 95.0903 679.388C95.0867 679.388 95.0831 679.388 95.0795 679.388C95.0758 679.388 95.0722 679.388 95.0686 679.388C95.065 679.388 95.0614 679.388 95.0578 679.388C95.0542 679.388 95.0506 679.388 95.0469 679.388C95.0433 679.388 95.0397 679.388 95.0361 679.388C95.0325 679.388 95.0289 679.388 95.0252 679.388C95.0216 679.388 95.018 679.388 95.0144 679.388C95.0107 679.388 95.0071 679.388 95.0035 679.388C94.9998 679.388 94.9962 679.388 94.9926 679.388C94.989 679.388 94.9853 679.388 94.9817 679.388C94.9781 679.388 94.9744 679.388 94.9708 679.388C94.9671 679.388 94.9635 679.388 94.9599 679.388C94.9562 679.388 94.9526 679.388 94.9489 679.388C94.9453 679.388 94.9416 679.388 94.938 679.388C94.9344 679.388 94.9307 679.388 94.9271 679.388C94.9234 679.388 94.9198 679.388 94.9161 679.388C94.9124 679.388 94.9088 679.388 94.9051 679.388C94.9015 679.388 94.8978 679.388 94.8942 679.388C94.8905 679.388 94.8869 679.388 94.8832 679.388C94.8795 679.388 94.8759 679.388 94.8722 679.388C94.8685 679.388 94.8649 679.388 94.8612 679.388C94.8575 679.388 94.8538 679.388 94.8502 679.388C94.8465 679.388 94.8428 679.388 94.8392 679.388C94.8355 679.388 94.8318 679.388 94.8281 679.388C94.8245 679.388 94.8208 679.388 94.8171 679.388C94.8134 679.388 94.8097 679.388 94.8061 679.388C94.8024 679.388 94.7987 679.388 94.795 679.388C94.7913 679.388 94.7876 679.388 94.7839 679.388C94.7802 679.388 94.7766 679.388 94.7729 679.388C94.7692 679.388 94.7655 679.388 94.7618 679.388C94.7581 679.388 94.7544 679.388 94.7507 679.388C94.747 679.388 94.7433 679.388 94.7396 679.388C94.7359 679.388 94.7322 679.388 94.7285 679.388C94.7248 679.388 94.7211 679.388 94.7174 679.388C94.7137 679.388 94.7099 679.388 94.7062 679.388C94.7025 679.388 94.6988 679.388 94.6951 679.388C94.6914 679.388 94.6877 679.388 94.6839 679.388C94.6802 679.388 94.6765 679.388 94.6728 679.388C94.6691 679.388 94.6654 679.388 94.6616 679.388C94.6579 679.388 94.6542 679.388 94.6504 679.388C94.6467 679.388 94.643 679.388 94.6393 679.388C94.6355 679.388 94.6318 679.388 94.6281 679.388C94.6243 679.388 94.6206 679.388 94.6169 679.388C94.6131 679.388 94.6094 679.388 94.6057 679.388C94.6019 679.388 94.5982 679.388 94.5945 679.388C94.5907 679.388 94.587 679.388 94.5832 679.388C94.5795 679.388 94.5757 679.388 94.572 679.388C94.5682 679.388 94.5645 679.388 94.5607 679.388C94.557 679.388 94.5532 679.388 94.5495 679.388C94.5457 679.388 94.542 679.388 94.5382 679.388C94.5345 679.388 94.5307 679.388 94.5269 679.388C94.5232 679.388 94.5194 679.388 94.5157 679.388C94.5119 679.388 94.5081 679.388 94.5044 679.388C94.5006 679.388 94.4968 679.388 94.4931 679.388C94.4893 679.388 94.4855 679.388 94.4817 679.388C94.478 679.388 94.4742 679.388 94.4704 679.388C94.4666 679.388 94.4629 679.388 94.4591 679.388C94.4553 679.388 94.4515 679.388 94.4478 679.388C94.444 679.388 94.4402 679.388 94.4364 679.388C94.4326 679.388 94.4288 679.388 94.425 679.388C94.4213 679.388 94.4175 679.388 94.4137 679.388C94.4099 679.388 94.4061 679.388 94.4023 679.388C94.3985 679.388 94.3947 679.388 94.3909 679.388C94.3871 679.388 94.3833 679.388 94.3795 679.388C94.3757 679.388 94.3719 679.388 94.3681 679.388C94.3643 679.388 94.3605 679.388 94.3567 679.388C94.3529 679.388 94.3491 679.388 94.3453 679.388C94.3415 679.388 94.3377 679.388 94.3339 679.388C94.33 679.388 94.3262 679.388 94.3224 679.388C94.3186 679.388 94.3148 679.388 94.311 679.388C94.3072 679.388 94.3033 679.388 94.2995 679.388C94.2957 679.388 94.2919 679.388 94.2881 679.388C94.2842 679.388 94.2804 679.388 94.2766 679.388C94.2727 679.388 94.2689 679.388 94.2651 679.388C94.2613 679.388 94.2574 679.388 94.2536 679.388C94.2498 679.388 94.2459 679.388 94.2421 679.388C94.2382 679.388 94.2344 679.388 94.2306 679.388C94.2267 679.388 94.2229 679.388 94.2191 679.388C94.2152 679.388 94.2114 679.388 94.2075 679.388C94.2037 679.388 94.1998 679.388 94.196 679.388C94.1921 679.388 94.1883 679.388 94.1844 679.388C94.1806 679.388 94.1767 679.388 94.1729 679.388C94.169 679.388 94.1652 679.388 94.1613 679.388C94.1575 679.388 94.1536 679.388 94.1497 679.388C94.1459 679.388 94.142 679.388 94.1382 679.388C94.1343 679.388 94.1304 679.388 94.1266 679.388C94.1227 679.388 94.1188 679.388 94.1149 679.388C94.1111 679.388 94.1072 679.388 94.1033 679.388C94.0995 679.388 94.0956 679.388 94.0917 679.388C94.0878 679.388 94.084 679.388 94.0801 679.388C94.0762 679.388 94.0723 679.388 94.0684 679.388C94.0646 679.388 94.0607 679.388 94.0568 679.388C94.0529 679.388 94.049 679.388 94.0451 679.388C94.0412 679.388 94.0374 679.388 94.0335 679.388C94.0296 679.388 94.0257 679.388 94.0218 679.388C94.0179 679.388 94.014 679.388 94.0101 679.388C94.0062 679.388 94.0023 679.388 93.9984 679.388C93.9945 679.388 93.9906 679.388 93.9867 679.388C93.9828 679.388 93.9789 679.388 93.975 679.388C93.9711 679.388 93.9672 679.388 93.9633 679.388C93.9593 679.388 93.9554 679.388 93.9515 679.388C93.9476 679.388 93.9437 679.388 93.9398 679.388C93.9359 679.388 93.932 679.388 93.928 679.388C93.9241 679.388 93.9202 679.388 93.9163 679.388C93.9124 679.388 93.9084 679.388 93.9045 679.388C93.9006 679.388 93.8967 679.388 93.8927 679.388C93.8888 679.388 93.8849 679.388 93.8809 679.388C93.877 679.388 93.8731 679.388 93.8691 679.388C93.8652 679.388 93.8613 679.388 93.8573 679.388C93.8534 679.388 93.8495 679.388 93.8455 679.388C93.8416 679.388 93.8376 679.388 93.8337 679.388C93.8298 679.388 93.8258 679.388 93.8219 679.388C93.8179 679.388 93.814 679.388 93.81 679.388C93.8061 679.388 93.8021 679.388 93.7982 679.388C93.7942 679.388 93.7903 679.388 93.7863 679.388C93.7824 679.388 93.7784 679.388 93.7744 679.388C93.7705 679.388 93.7665 679.388 93.7626 679.388C93.7586 679.388 93.7546 679.388 93.7507 679.388C93.7467 679.388 93.7428 679.388 93.7388 679.388C93.7348 679.388 93.7308 679.388 93.7269 679.388C93.7229 679.388 93.7189 679.388 93.7149 679.388C93.711 679.388 93.707 679.388 93.703 679.388C93.699 679.388 93.6951 679.388 93.6911 679.388C93.6871 679.388 93.6831 679.388 93.6792 679.388C93.6752 679.388 93.6712 679.388 93.6672 679.388C93.6632 679.388 93.6592 679.388 93.6552 679.388C93.6512 679.388 93.6473 679.388 93.6433 679.388C93.6393 679.388 93.6353 679.388 93.6313 679.388C93.6273 679.388 93.6233 679.388 93.6193 679.388C93.6153 679.388 93.6113 679.388 93.6073 679.388C93.6033 679.388 93.5993 679.388 93.5953 679.388C93.5913 679.388 93.5873 679.388 93.5833 679.388C93.5793 679.388 93.5753 679.388 93.5713 679.388C93.5672 679.388 93.5632 679.388 93.5592 679.388C93.5552 679.388 93.5512 679.388 93.5472 679.388C93.5432 679.388 93.5391 679.388 93.5351 679.388C93.5311 679.388 93.5271 679.388 93.5231 679.388C93.519 679.388 93.515 679.388 93.511 679.388C93.507 679.388 93.5029 679.388 93.4989 679.388C93.4949 679.388 93.4908 679.388 93.4868 679.388C93.4828 679.388 93.4788 679.388 93.4747 679.388C93.4707 679.388 93.4666 679.388 93.4626 679.388C93.4586 679.388 93.4545 679.388 93.4505 679.388C93.4465 679.388 93.4424 679.388 93.4384 679.388C93.4343 679.388 93.4303 679.388 93.4262 679.388C93.4222 679.388 93.4181 679.388 93.4141 679.388C93.41 679.388 93.406 679.388 93.4019 679.388C93.3979 679.388 93.3938 679.388 93.3898 679.388C93.3857 679.388 93.3817 679.388 93.3776 679.388C93.3735 679.388 93.3695 679.388 93.3654 679.388C93.3614 679.388 93.3573 679.388 93.3532 679.388C93.3492 679.388 93.3451 679.388 93.341 679.388C93.337 679.388 93.3329 679.388 93.3288 679.388C93.3248 679.388 93.3207 679.388 93.3166 679.388C93.3125 679.388 93.3085 679.388 93.3044 679.388C93.3003 679.388 93.2962 679.388 93.2921 679.388C93.2881 679.388 93.284 679.388 93.2799 679.388C93.2758 679.388 93.2717 679.388 93.2676 679.388C93.2635 679.388 93.2595 679.388 93.2554 679.388C93.2513 679.388 93.2472 679.388 93.2431 679.388C93.239 679.388 93.2349 679.388 93.2308 679.388C93.2267 679.388 93.2226 679.388 93.2185 679.388C93.2144 679.388 93.2103 679.388 93.2062 679.388C93.2021 679.388 93.198 679.388 93.1939 679.388C93.1898 679.388 93.1857 679.388 93.1816 679.388C93.1775 679.388 93.1734 679.388 93.1693 679.388C93.1652 679.388 93.1611 679.388 93.1569 679.388C93.1528 679.388 93.1487 679.388 93.1446 679.388C93.1405 679.388 93.1364 679.388 93.1322 679.388C93.1281 679.388 93.124 679.388 93.1199 679.388C93.1158 679.388 93.1116 679.388 93.1075 679.388C93.1034 679.388 93.0992 679.388 93.0951 679.388C93.091 679.388 93.0869 679.388 93.0827 679.388C93.0786 679.388 93.0745 679.388 93.0703 679.388C93.0662 679.388 93.0621 679.388 93.0579 679.388C93.0538 679.388 93.0496 679.388 93.0455 679.388C93.0413 679.388 93.0372 679.388 93.0331 679.388C93.0289 679.388 93.0248 679.388 93.0206 679.388C93.0165 679.388 93.0123 679.388 93.0082 679.388C93.004 679.388 92.9999 679.388 92.9957 679.388C92.9916 679.388 92.9874 679.388 92.9833 679.388C92.9791 679.388 92.9749 679.388 92.9708 679.388C92.9666 679.388 92.9625 679.388 92.9583 679.388C92.9541 679.388 92.95 679.388 92.9458 679.388C92.9416 679.388 92.9375 679.388 92.9333 679.388C92.9292 679.388 92.925 679.388 92.9208 679.388C92.9166 679.388 92.9125 679.388 92.9083 679.388C92.9041 679.388 92.8999 679.388 92.8958 679.388C92.8916 679.388 92.8874 679.388 92.8832 679.388C92.879 679.388 92.8748 679.388 92.8707 679.388C92.8665 679.388 92.8623 679.388 92.8581 679.388C92.8539 679.388 92.8497 679.388 92.8455 679.388C92.8414 679.388 92.8372 679.388 92.833 679.388C92.8288 679.388 92.8246 679.388 92.8204 679.388C92.8162 679.388 92.812 679.388 92.8078 679.388C92.8036 679.388 92.7994 679.388 92.7952 679.388C92.791 679.388 92.7868 679.388 92.7826 679.388C92.7784 679.388 92.7742 679.388 92.77 679.388C92.7657 679.388 92.7615 679.388 92.7573 679.388C92.7531 679.388 92.7489 679.388 92.7447 679.388C92.7405 679.388 92.7363 679.388 92.732 679.388C92.7278 679.388 92.7236 679.388 92.7194 679.388C92.7152 679.388 92.711 679.388 92.7067 679.388C92.7025 679.388 92.6983 679.388 92.694 679.388C92.6898 679.388 92.6856 679.388 92.6814 679.388C92.6771 679.388 92.6729 679.388 92.6687 679.388C92.6644 679.388 92.6602 679.388 92.656 679.388C92.6517 679.388 92.6475 679.388 92.6432 679.388C92.639 679.388 92.6348 679.388 92.6305 679.388C92.6263 679.388 92.622 679.388 92.6178 679.388C92.6136 679.388 92.6093 679.388 92.6051 679.388C92.6008 679.388 92.5966 679.388 92.5923 679.388C92.5881 679.388 92.5838 679.388 92.5796 679.388C92.5753 679.388 92.571 679.388 92.5668 679.388C92.5625 679.388 92.5583 679.388 92.554 679.388C92.5498 679.388 92.5455 679.388 92.5412 679.388C92.537 679.388 92.5327 679.388 92.5284 679.388C92.5242 679.388 92.5199 679.388 92.5156 679.388C92.5114 679.388 92.5071 679.388 92.5028 679.388C92.4985 679.388 92.4943 679.388 92.49 679.388C92.4857 679.388 92.4814 679.388 92.4772 679.388C92.4729 679.388 92.4686 679.388 92.4643 679.388C92.46 679.388 92.4558 679.388 92.4515 679.388C92.4472 679.388 92.4429 679.388 92.4386 679.388C92.4343 679.388 92.43 679.388 92.4257 679.388C92.4215 679.388 92.4172 679.388 92.4129 679.388C92.4086 679.388 92.4043 679.388 92.4 679.388L92.4 681.388ZM97.8712 681.385C99.2949 681.284 100.718 681.131 102.141 680.928L101.859 678.948C100.482 679.145 99.1051 679.292 97.7287 679.39L97.8712 681.385ZM101 679.938L101 707.388L103 707.388L103 679.938L101 679.938ZM101.865 706.397C99.7112 706.691 97.5064 706.838 95.25 706.838L95.25 708.838C97.5936 708.838 99.8887 708.685 102.135 708.379L101.865 706.397ZM95.25 706.838L75 706.838L75 708.838L95.25 708.838L95.25 706.838ZM75 706.838C71.641 706.838 68.9919 707.732 67.3281 709.752L68.8719 711.024C70.0081 709.644 71.959 708.838 75 708.838L75 706.838ZM67.328 709.752C65.7009 711.728 65 714.874 65 718.938L67 718.938C67 715.002 67.699 712.448 68.8719 711.024L67.328 709.752ZM65 718.938L65 766.188L67 766.188L67 718.938L65 718.938ZM66 767.188L102 767.188L102 765.188L66 765.188L66 767.188ZM43.9 718.188C43.9 716.193 43.5866 714.475 42.8944 713.091L41.1056 713.985C41.6134 715.001 41.9 716.383 41.9 718.188L43.9 718.188ZM42.8944 713.091C42.2329 711.768 41.3431 710.652 40.2247 709.757L38.9753 711.319C39.8569 712.024 40.5671 712.908 41.1056 713.985L42.8944 713.091ZM40.2306 709.762C38.4685 708.33 36.4997 707.588 34.35 707.588L34.35 709.588C36.0002 709.588 37.5314 710.146 38.9694 711.314L40.2306 709.762ZM34.35 707.588C31.8094 707.588 29.6471 708.427 27.9429 710.131L29.3571 711.545C30.6528 710.249 32.2905 709.588 34.35 709.588L34.35 707.588ZM27.9856 710.09C25.9016 711.943 24.95 714.712 24.95 718.188L26.95 718.188C26.95 715.063 27.7983 712.933 29.3143 711.585L27.9856 710.09ZM24.95 718.188L24.95 763.938L26.95 763.938L26.95 718.188L24.95 718.188ZM24.95 763.938C24.95 764.842 25.1767 765.704 25.8054 766.332C26.4341 766.961 27.2958 767.188 28.2 767.188L28.2 765.188C27.6041 765.188 27.3409 765.04 27.2196 764.918C27.0983 764.797 26.95 764.534 26.95 763.938L24.95 763.938ZM28.2 767.188L42.9 767.188L42.9 765.188L28.2 765.188L28.2 767.188ZM43.9 766.188L43.9 718.188L41.9 718.188L41.9 766.188L43.9 766.188ZM0.599968 555.318L0.599968 554.318L-0.400032 554.318L-0.400032 555.318L0.599968 555.318ZM27.45 555.318L28.45 555.318L28.45 554.318L27.45 554.318L27.45 555.318ZM27.45 599.718L26.45 599.718L26.45 600.718L27.45 600.718L27.45 599.718ZM102 599.718L103 599.718L103 598.718L102 598.718L102 599.718ZM102 627.018L102 628.018L103 628.018L103 627.018L102 627.018ZM27.45 627.018L27.45 626.018L26.45 626.018L26.45 627.018L27.45 627.018ZM27.45 671.568L27.45 672.568L28.45 672.568L28.45 671.568L27.45 671.568ZM0.599974 671.568L-0.400026 671.568L-0.400026 672.568L0.599974 672.568L0.599974 671.568ZM0.599969 556.318L27.45 556.318L27.45 554.318L0.599968 554.318L0.599969 556.318ZM26.45 555.318L26.45 599.718L28.45 599.718L28.45 555.318L26.45 555.318ZM27.45 600.718L102 600.718L102 598.718L27.45 598.718L27.45 600.718ZM101 599.718L101 627.018L103 627.018L103 599.718L101 599.718ZM102 626.018L27.45 626.018L27.45 628.018L102 628.018L102 626.018ZM26.45 627.018L26.45 671.568L28.45 671.568L28.45 627.018L26.45 627.018ZM27.45 670.568L0.599974 670.568L0.599974 672.568L27.45 672.568L27.45 670.568ZM1.59997 671.568L1.59997 555.318L-0.400032 555.318L-0.400026 671.568L1.59997 671.568ZM0.599963 438.107L0.599963 437.107L-0.400037 437.107L-0.400037 438.107L0.599963 438.107ZM27.45 438.107L28.45 438.107L28.45 437.107L27.45 437.107L27.45 438.107ZM42.9 517.607L42.9 518.607L43.9 518.607L43.9 517.607L42.9 517.607ZM42.9 438.557L42.9 437.557L41.9 437.557L41.9 438.557L42.9 438.557ZM68.1 438.557L69.1 438.557L69.1 437.557L68.1 437.557L68.1 438.557ZM68.1 517.607L67.1 517.607L67.1 518.607L68.1 518.607L68.1 517.607ZM102 517.607L103 517.607L103 516.607L102 516.607L102 517.607ZM102 544.757L102 545.757L103 545.757L103 544.757L102 544.757ZM0.599963 439.107L27.45 439.107L27.45 437.107L0.599963 437.107L0.599963 439.107ZM26.45 438.107L26.45 513.407L28.45 513.407L28.45 438.107L26.45 438.107ZM26.45 513.407C26.45 514.98 26.8744 516.338 27.8927 517.288C28.8979 518.227 30.3123 518.607 31.95 518.607L31.95 516.607C30.5876 516.607 29.7521 516.288 29.2573 515.826C28.7755 515.377 28.45 514.635 28.45 513.407L26.45 513.407ZM31.95 518.607L42.9 518.607L42.9 516.607L31.95 516.607L31.95 518.607ZM43.9 517.607L43.9 438.557L41.9 438.557L41.9 517.607L43.9 517.607ZM42.9 439.557L68.1 439.557L68.1 437.557L42.9 437.557L42.9 439.557ZM67.1 438.557L67.1 517.607L69.1 517.607L69.1 438.557L67.1 438.557ZM68.1 518.607L102 518.607L102 516.607L68.1 516.607L68.1 518.607ZM101 517.607L101 544.757L103 544.757L103 517.607L101 517.607ZM102 543.757L19.2 543.757L19.2 545.757L102 545.757L102 543.757ZM19.2 543.757C13.1501 543.757 8.7971 542.269 5.95131 539.47C3.10851 536.673 1.59997 532.399 1.59997 526.457L-0.400033 526.457C-0.400033 532.716 1.19143 537.592 4.54863 540.895C7.90284 544.195 12.8499 545.757 19.2 545.757L19.2 543.757ZM1.59997 526.457L1.59996 438.107L-0.400037 438.107L-0.400033 526.457L1.59997 526.457ZM97.65 398.202L98.5627 398.61L98.5677 398.599L97.65 398.202ZM85.5 415.302L86.1735 416.041L86.1777 416.037L85.5 415.302ZM70.05 424.902L69.6813 423.972L70.05 424.902ZM30.6 424.002L31.0127 423.091L30.6 424.002ZM13.95 412.002L14.6853 411.324L14.681 411.319L13.95 412.002ZM4.19997 396.102L5.1357 395.749L5.13254 395.741L4.19997 396.102ZM4.19996 331.752L5.13053 332.118L5.13412 332.109L5.13753 332.099L4.19996 331.752ZM13.95 315.702L14.681 316.384L14.6853 316.379L13.95 315.702ZM30.6 303.702L30.1872 302.791L30.6 303.702ZM85.5 312.402L86.1777 311.666L86.1735 311.662L85.5 312.402ZM97.65 329.502L98.5678 329.104L98.5627 329.093L97.65 329.502ZM34.05 393.702L33.31 394.374L33.3186 394.384L33.3273 394.393L34.05 393.702ZM41.85 399.252L41.4271 400.158L41.4396 400.164L41.4524 400.169L41.85 399.252ZM60.3 399.552L60.6657 400.482L60.6773 400.478L60.3 399.552ZM67.5 394.902L66.8242 394.164L66.8172 394.171L66.8103 394.177L67.5 394.902ZM73.2 386.652L74.1206 387.042L73.2 386.652ZM73.2 341.052L74.1206 340.661L73.2 341.052ZM67.5 332.802L66.8103 333.526L66.8172 333.532L66.8242 333.539L67.5 332.802ZM60.3 328.152L60.6773 327.225L60.6656 327.221L60.3 328.152ZM41.85 328.602L42.2476 329.519L42.2603 329.514L42.2728 329.508L41.85 328.602ZM34.05 334.002L33.3273 333.31L33.3186 333.32L33.31 333.329L34.05 334.002ZM29.25 341.802L28.3215 341.43L29.25 341.802ZM101 374.502C101 383.498 99.5664 391.257 96.7323 397.804L98.5677 398.599C101.534 391.747 103 383.706 103 374.502L101 374.502ZM96.7373 397.793C93.7894 404.377 89.8169 409.963 84.8223 414.566L86.1777 416.037C91.3831 411.24 95.5106 405.427 98.5627 398.61L96.7373 397.793ZM84.8265 414.562C80.418 418.579 75.3719 421.715 69.6813 423.972L70.4186 425.831C76.328 423.488 81.5819 420.224 86.1735 416.041L84.8265 414.562ZM69.6813 423.972C64.0071 426.222 57.8831 427.352 51.3 427.352L51.3 429.352C58.1168 429.352 64.4928 428.181 70.4186 425.831L69.6813 423.972ZM51.3 427.352C44.0346 427.352 37.2762 425.929 31.0127 423.091L30.1872 424.912C36.7238 427.874 43.7653 429.352 51.3 429.352L51.3 427.352ZM31.0127 423.091C24.7331 420.245 19.2933 416.324 14.6853 411.324L13.2146 412.679C18.0067 417.879 23.6668 421.958 30.1872 424.912L31.0127 423.091ZM14.681 411.319C10.5753 406.92 7.39237 401.734 5.13567 395.749L3.26427 396.454C5.60757 402.669 8.92466 408.083 13.2189 412.684L14.681 411.319ZM5.13254 395.741C2.78616 389.679 1.59996 382.606 1.59996 374.502L-0.400039 374.502C-0.400039 382.797 0.813771 390.124 3.2674 396.463L5.13254 395.741ZM1.59996 374.502L1.59996 353.202L-0.40004 353.202L-0.400039 374.502L1.59996 374.502ZM1.59996 353.202C1.59996 345.097 2.78633 338.076 5.13053 332.118L3.2694 331.385C0.813597 337.627 -0.400041 344.907 -0.40004 353.202L1.59996 353.202ZM5.13753 332.099C7.39496 326.014 10.5779 320.78 14.681 316.384L13.2189 315.019C8.92208 319.623 5.60497 325.089 3.2624 331.404L5.13753 332.099ZM14.6853 316.379C19.2933 311.379 24.7331 307.458 31.0127 304.612L30.1872 302.791C23.6668 305.745 18.0067 309.824 13.2146 315.024L14.6853 316.379ZM31.0127 304.612C37.2762 301.774 44.0346 300.352 51.3 300.352L51.3 298.352C43.7653 298.352 36.7238 299.829 30.1872 302.791L31.0127 304.612ZM51.3 300.352C57.8831 300.352 64.0071 301.481 69.6813 303.731L70.4186 301.872C64.4928 299.522 58.1168 298.352 51.3 298.352L51.3 300.352ZM69.6813 303.731C75.3719 305.988 80.418 309.124 84.8265 313.141L86.1735 311.662C81.5819 307.479 76.328 304.215 70.4186 301.872L69.6813 303.731ZM84.8223 313.137C89.8169 317.74 93.7894 323.327 96.7373 329.91L98.5627 329.093C95.5106 322.277 91.3831 316.463 86.1776 311.666L84.8223 313.137ZM96.7323 329.899C99.5664 336.447 101 344.206 101 353.202L103 353.202C103 343.998 101.534 335.957 98.5677 329.104L96.7323 329.899ZM101 353.202L101 374.502L103 374.502L103 353.202L101 353.202ZM26.45 374.502C26.45 379.179 27.0588 383.116 28.3215 386.273L30.1784 385.53C29.0412 382.687 28.45 379.024 28.45 374.502L26.45 374.502ZM28.3215 386.273C29.562 389.374 31.223 392.078 33.31 394.374L34.7899 393.029C32.8769 390.925 31.3379 388.429 30.1784 385.53L28.3215 386.273ZM33.3273 394.393C35.6165 396.786 38.3193 398.707 41.4271 400.158L42.2729 398.345C39.3806 396.996 36.8835 395.217 34.7726 393.01L33.3273 394.393ZM41.4524 400.169C44.5829 401.526 47.9188 402.202 51.45 402.202L51.45 400.202C48.1812 400.202 45.1171 399.577 42.2476 398.334L41.4524 400.169ZM51.45 402.202C54.6712 402.202 57.7456 401.629 60.6656 400.482L59.9343 398.621C57.2544 399.674 54.4287 400.202 51.45 400.202L51.45 402.202ZM60.6773 400.478C63.4925 399.331 65.9986 397.712 68.1896 395.626L66.8103 394.177C64.8014 396.091 62.5075 397.572 59.9227 398.625L60.6773 400.478ZM68.1757 395.639C70.6914 393.333 72.6704 390.46 74.1206 387.042L72.2794 386.261C70.9296 389.443 69.1085 392.07 66.8242 394.164L68.1757 395.639ZM74.1206 387.042C75.5875 383.584 76.3 379.393 76.3 374.502L74.3 374.502C74.3 379.21 73.6125 383.119 72.2794 386.261L74.1206 387.042ZM76.3 374.502L76.3 353.202L74.3 353.202L74.3 374.502L76.3 374.502ZM76.3 353.202C76.3 348.31 75.5875 344.119 74.1206 340.661L72.2794 341.442C73.6125 344.584 74.3 348.493 74.3 353.202L76.3 353.202ZM74.1206 340.661C72.6704 337.243 70.6914 334.37 68.1757 332.064L66.8242 333.539C69.1085 335.633 70.9296 338.26 72.2794 341.442L74.1206 340.661ZM68.1896 332.077C65.9986 329.991 63.4925 328.372 60.6773 327.225L59.9227 329.078C62.5075 330.131 64.8014 331.612 66.8103 333.526L68.1896 332.077ZM60.6656 327.221C57.7456 326.074 54.6712 325.502 51.45 325.502L51.45 327.502C54.4287 327.502 57.2544 328.029 59.9343 329.082L60.6656 327.221ZM51.45 325.502C47.9079 325.502 44.5631 326.232 41.4271 327.695L42.2728 329.508C45.1368 328.171 48.192 327.502 51.45 327.502L51.45 325.502ZM41.4524 327.684C38.3334 329.036 35.622 330.911 33.3273 333.31L34.7726 334.693C36.8779 332.492 39.3665 330.768 42.2476 329.519L41.4524 327.684ZM33.31 333.329C31.223 335.625 29.562 338.329 28.3215 341.43L30.1784 342.173C31.3379 339.274 32.8769 336.779 34.7899 334.674L33.31 333.329ZM28.3215 341.43C27.0588 344.587 26.45 348.524 26.45 353.202L28.45 353.202C28.45 348.679 29.0412 345.016 30.1784 342.173L28.3215 341.43ZM26.45 353.202L26.45 374.502L28.45 374.502L28.45 353.202L26.45 353.202ZM100.05 270.145L100.999 270.461L101.003 270.448L101.007 270.434L100.05 270.145ZM93.9 280.345L94.566 281.091L94.58 281.078L94.5936 281.065L93.9 280.345ZM83.55 285.745L83.8033 286.712L83.8091 286.711L83.55 285.745ZM0.599957 287.395L-0.400043 287.395L-0.400043 288.395L0.599957 288.395L0.599957 287.395ZM0.599956 260.095L0.599956 259.095L-0.400044 259.095L-0.400044 260.095L0.599956 260.095ZM74.1 258.295L74.7508 259.054L74.7799 259.029L74.8071 259.002L74.1 258.295ZM76.05 180.745L76.05 179.745L75.05 179.745L75.05 180.745L76.05 180.745ZM102 180.745L103 180.745L103 179.745L102 179.745L102 180.745ZM101 254.395C101 260.531 100.356 265.677 99.0928 269.856L101.007 270.434C102.344 266.012 103 260.659 103 254.395L101 254.395ZM99.1013 269.829C97.7432 273.903 95.7705 277.155 93.2063 279.625L94.5936 281.065C97.4294 278.334 99.5568 274.787 100.999 270.461L99.1013 269.829ZM93.2339 279.599C90.565 281.982 87.2598 283.714 83.2908 284.779L83.8091 286.711C88.0401 285.576 91.6349 283.708 94.566 281.091L93.2339 279.599ZM83.2966 284.778C79.1979 285.851 74.436 286.395 69 286.395L69 288.395C74.5639 288.395 79.5021 287.839 83.8033 286.712L83.2966 284.778ZM69 286.395L0.599957 286.395L0.599957 288.395L69 288.395L69 286.395ZM1.59996 287.395L1.59996 260.095L-0.400044 260.095L-0.400043 287.395L1.59996 287.395ZM0.599956 261.095L66.45 261.095L66.45 259.095L0.599956 259.095L0.599956 261.095ZM66.45 261.095C70.1848 261.095 73.059 260.504 74.7508 259.054L73.4492 257.536C72.341 258.486 70.1151 259.095 66.45 259.095L66.45 261.095ZM74.8071 259.002C76.4049 257.404 77.05 254.647 77.05 251.095L75.05 251.095C75.05 254.543 74.3951 256.586 73.3929 257.588L74.8071 259.002ZM77.05 251.095L77.05 180.745L75.05 180.745L75.05 251.095L77.05 251.095ZM76.05 181.745L102 181.745L102 179.745L76.05 179.745L76.05 181.745ZM101 180.745L101 254.395L103 254.395L103 180.745L101 180.745ZM0.59995 142.743L0.59995 141.743L-0.40005 141.743L-0.40005 142.743L0.59995 142.743ZM102 142.743L103 142.743L103 141.743L102 141.743L102 142.743ZM102 170.043L102 171.043L103 171.043L103 170.043L102 170.043ZM0.599952 170.043L-0.400048 170.043L-0.400048 171.043L0.599952 171.043L0.599952 170.043ZM0.59995 143.743L102 143.743L102 141.743L0.59995 141.743L0.59995 143.743ZM101 142.743L101 170.043L103 170.043L103 142.743L101 142.743ZM102 169.043L0.599952 169.043L0.599952 171.043L102 171.043L102 169.043ZM1.59995 170.043L1.59995 142.743L-0.40005 142.743L-0.400048 170.043L1.59995 170.043ZM97.65 99.6664L98.5627 100.075L98.5677 100.064L97.65 99.6664ZM85.5 116.766L86.1735 117.506L86.1776 117.502L85.5 116.766ZM70.05 126.366L69.6813 125.437L70.05 126.366ZM30.6 125.466L31.0127 124.556L30.6 125.466ZM13.95 113.466L14.6853 112.789L14.681 112.784L13.95 113.466ZM4.19995 97.5664L5.13569 97.2136L5.13252 97.2054L4.19995 97.5664ZM4.19995 33.2164L5.13052 33.5825L5.13411 33.5734L5.13752 33.5642L4.19995 33.2164ZM13.95 17.1664L14.681 17.8488L14.6853 17.8441L13.95 17.1664ZM30.6 5.16638L30.1872 4.25549L30.6 5.16638ZM85.5 13.8664L86.1776 13.131L86.1734 13.1272L85.5 13.8664ZM97.6499 30.9664L98.5677 30.5691L98.5626 30.5577L97.6499 30.9664ZM34.05 95.1664L33.31 95.839L33.3185 95.8484L33.3273 95.8576L34.05 95.1664ZM41.85 100.716L41.4271 101.623L41.4396 101.628L41.4524 101.634L41.85 100.716ZM60.3 101.016L60.6656 101.947L60.6772 101.943L60.3 101.016ZM67.5 96.3664L66.8242 95.6293L66.8172 95.6357L66.8103 95.6423L67.5 96.3664ZM73.2 88.1164L74.1205 88.507L73.2 88.1164ZM73.2 42.5164L74.1205 42.1258L73.2 42.5164ZM67.5 34.2664L66.8103 34.9905L66.8172 34.9971L66.8242 35.0035L67.5 34.2664ZM60.3 29.6165L60.6773 28.6902L60.6656 28.6857L60.3 29.6165ZM41.85 30.0664L42.2476 30.984L42.2603 30.9784L42.2728 30.9725L41.85 30.0664ZM34.05 35.4664L33.3273 34.7751L33.3185 34.7843L33.31 34.7937L34.05 35.4664ZM29.25 43.2664L28.3215 42.895L29.25 43.2664ZM101 75.9664C101 84.9624 99.5663 92.7214 96.7322 99.2692L98.5677 100.064C101.534 93.2114 103 85.1704 103 75.9664L101 75.9664ZM96.7373 99.2577C93.7894 105.841 89.8169 111.428 84.8223 116.031L86.1776 117.502C91.3831 112.705 95.5105 106.891 98.5626 100.075L96.7373 99.2577ZM84.8265 116.027C80.418 120.044 75.3719 123.18 69.6813 125.437L70.4186 127.296C76.328 124.953 81.5819 121.689 86.1735 117.506L84.8265 116.027ZM69.6813 125.437C64.0071 127.687 57.8831 128.816 51.3 128.816L51.3 130.816C58.1168 130.816 64.4928 129.646 70.4186 127.296L69.6813 125.437ZM51.3 128.816C44.0346 128.816 37.2762 127.394 31.0127 124.556L30.1872 126.377C36.7238 129.339 43.7653 130.816 51.3 130.816L51.3 128.816ZM31.0127 124.556C24.7331 121.71 19.2933 117.789 14.6853 112.789L13.2146 114.144C18.0066 119.344 23.6668 123.423 30.1872 126.377L31.0127 124.556ZM14.681 112.784C10.5753 108.385 7.39236 103.199 5.13565 97.2136L3.26426 97.9192C5.60756 104.134 8.92465 109.548 13.2189 114.149L14.681 112.784ZM5.13252 97.2054C2.78614 91.1439 1.59995 84.0708 1.59995 75.9664L-0.400052 75.9664C-0.400052 84.262 0.813758 91.5889 3.26739 97.9274L5.13252 97.2054ZM1.59995 75.9664L1.59995 54.6664L-0.400053 54.6664L-0.400052 75.9664L1.59995 75.9664ZM1.59995 54.6664C1.59995 46.5615 2.78631 39.5406 5.13052 33.5825L3.26939 32.8502C0.813584 39.092 -0.400054 46.3714 -0.400053 54.6664L1.59995 54.6664ZM5.13752 33.5642C7.39495 27.479 10.5778 22.245 14.681 17.8488L13.2189 16.4841C8.92206 21.0879 5.60495 26.5538 3.26239 32.8687L5.13752 33.5642ZM14.6853 17.8441C19.2933 12.844 24.7331 8.92273 31.0127 6.07727L30.1872 4.25549C23.6668 7.21008 18.0066 11.2888 13.2146 16.4888L14.6853 17.8441ZM31.0127 6.07727C37.2762 3.23913 44.0346 1.8164 51.2999 1.8164L51.2999 -0.183598C43.7653 -0.183597 36.7237 1.2937 30.1872 4.25549L31.0127 6.07727ZM51.2999 1.8164C57.8831 1.8164 64.0071 2.9458 69.6813 5.19592L70.4186 3.33679C64.4928 0.986934 58.1168 -0.183598 51.2999 -0.183598L51.2999 1.8164ZM69.6813 5.19592C75.3719 7.45263 80.418 10.589 84.8265 14.6056L86.1734 13.1272C81.5819 8.94384 76.328 5.68017 70.4186 3.33679L69.6813 5.19592ZM84.8223 14.6018C89.8168 19.2046 93.7894 24.7914 96.7373 31.3751L98.5626 30.5577C95.5105 23.7413 91.3831 17.9282 86.1776 13.1311L84.8223 14.6018ZM96.7322 31.3636C99.5663 37.9114 101 45.6704 101 54.6664L103 54.6664C103 45.4624 101.534 37.4214 98.5677 30.5692L96.7322 31.3636ZM101 54.6664L101 75.9664L103 75.9664L103 54.6664L101 54.6664ZM26.45 75.9664C26.45 80.6439 27.0587 84.5809 28.3215 87.7378L30.1784 86.995C29.0412 84.1519 28.45 80.4888 28.45 75.9664L26.45 75.9664ZM28.3215 87.7378C29.562 90.839 31.223 93.5433 33.31 95.839L34.7899 94.4937C32.8769 92.3895 31.3379 89.8938 30.1784 86.995L28.3215 87.7378ZM33.3273 95.8576C35.6165 98.2509 38.3193 100.172 41.4271 101.623L42.2728 99.8102C39.3806 98.4605 36.8834 96.6819 34.7726 94.4752L33.3273 95.8576ZM41.4524 101.634C44.5829 102.991 47.9188 103.666 51.45 103.666L51.45 101.666C48.1812 101.666 45.117 101.042 42.2476 99.7988L41.4524 101.634ZM51.45 103.666C54.6712 103.666 57.7456 103.094 60.6656 101.947L59.9343 100.086C57.2543 101.138 54.4287 101.666 51.45 101.666L51.45 103.666ZM60.6772 101.943C63.4925 100.796 65.9985 99.1772 68.1896 97.0905L66.8103 95.6423C64.8014 97.5555 62.5075 99.0372 59.9227 100.09L60.6772 101.943ZM68.1757 97.1036C70.6914 94.7975 72.6704 91.9252 74.1205 88.507L72.2794 87.7258C70.9296 90.9075 69.1085 93.5353 66.8242 95.6293L68.1757 97.1036ZM74.1205 88.507C75.5875 85.0492 76.3 80.8576 76.3 75.9664L74.3 75.9664C74.3 80.6752 73.6124 84.5836 72.2794 87.7258L74.1205 88.507ZM76.3 75.9664L76.3 54.6664L74.3 54.6664L74.3 75.9664L76.3 75.9664ZM76.3 54.6664C76.3 49.7752 75.5875 45.5836 74.1205 42.1258L72.2794 42.907C73.6124 46.0492 74.3 49.9576 74.3 54.6664L76.3 54.6664ZM74.1205 42.1258C72.6703 38.7075 70.6914 35.8353 68.1757 33.5293L66.8242 35.0035C69.1085 37.0975 70.9296 39.7252 72.2794 42.907L74.1205 42.1258ZM68.1896 33.5422C65.9985 31.4556 63.4924 29.8373 60.6772 28.6903L59.9227 30.5425C62.5075 31.5956 64.8014 33.0773 66.8103 34.9905L68.1896 33.5422ZM60.6656 28.6857C57.7456 27.5384 54.6712 26.9664 51.45 26.9664L51.45 28.9664C54.4287 28.9664 57.2543 29.4943 59.9343 30.5471L60.6656 28.6857ZM51.45 26.9664C47.9079 26.9664 44.5631 27.6968 41.4271 29.1602L42.2728 30.9725C45.1368 29.6361 48.192 28.9664 51.45 28.9664L51.45 26.9664ZM41.4523 29.1488C38.3334 30.5004 35.622 32.3762 33.3273 34.7751L34.7726 36.1576C36.8779 33.9567 39.3665 32.2324 42.2476 30.984L41.4523 29.1488ZM33.31 34.7937C31.223 37.0895 29.562 39.7938 28.3215 42.895L30.1784 43.6378C31.3379 40.739 32.8769 38.2433 34.7899 36.139L33.31 34.7937ZM28.3215 42.895C27.0587 46.0518 26.45 49.9888 26.45 54.6664L28.45 54.6664C28.45 50.1439 29.0412 46.481 30.1784 43.6378L28.3215 42.895ZM26.45 54.6664L26.45 75.9664L28.45 75.9664L28.45 54.6664L26.45 54.6664Z" fill="#847CA0"/>
</svg>
