<svg width="56" height="54" viewBox="0 0 56 54" fill="none" xmlns="http://www.w3.org/2000/svg">
<path d="M10.2396 0.1875H45.7605C51.1459 0.1875 55.5 4.54163 55.5 9.92712V44.073C55.5 49.4584 51.1459 53.8126 45.7604 53.8126H10.2396C4.85413 53.8125 0.5 49.4584 0.5 44.0729V9.92712C0.5 4.54163 4.85413 0.1875 10.2396 0.1875Z" fill="#001834"/>
<path d="M12.875 37.7937V14.2125C12.875 14.0521 12.9438 13.9604 13.1041 13.9604C13.4938 13.9604 13.8604 13.9604 14.3875 13.9375C14.9375 13.9146 15.5104 13.9146 16.1291 13.8916C16.7479 13.8686 17.4125 13.8687 18.1229 13.8458C18.8333 13.8229 19.5208 13.8229 20.2083 13.8229C22.0874 13.8229 23.6458 14.052 24.9291 14.5333C26.075 14.9229 27.1291 15.5645 28 16.4124C28.7334 17.1458 29.3062 18.0395 29.6729 19.0249C30.0166 19.9874 30.2 20.9728 30.2 22.004C30.2 23.9749 29.7416 25.6019 28.825 26.8853C27.9084 28.1686 26.625 29.1311 25.1354 29.6811C23.577 30.254 21.8583 30.4603 19.9791 30.4603C19.4291 30.4603 19.0625 30.4603 18.8333 30.4374C18.6041 30.4145 18.2833 30.4145 17.8479 30.4145V37.7708C17.8708 37.9311 17.7562 38.0686 17.5958 38.0916C17.5729 38.0916 17.5499 38.0916 17.5041 38.0916H13.15C12.9666 38.0916 12.875 38 12.875 37.7937ZM17.8709 18.3834V26.0834C18.1917 26.1062 18.4896 26.1292 18.7646 26.1292H19.9792C21.5617 26.1292 23.3892 25.7573 24.4937 24.5022C25.4443 23.422 25.447 21.2798 24.6771 20.1022C23.7632 18.7043 21.9355 18.2994 20.3688 18.3376C19.7729 18.3376 19.2459 18.3376 18.8104 18.3605C18.3521 18.3375 18.0312 18.3604 17.8709 18.3834Z" fill="#00A9FF"/>
<path d="M44.5 24.6854C43.8125 24.3187 43.0791 24.0666 42.3 23.9062C41.4521 23.7229 40.6041 23.6083 39.7333 23.6083C39.275 23.5855 38.7937 23.6542 38.3583 23.7687C38.0604 23.8375 37.8083 23.9979 37.6479 24.2271C37.5333 24.4105 37.4646 24.6396 37.4646 24.8458C37.4646 25.0521 37.5562 25.2583 37.6937 25.4417C37.9 25.6938 38.175 25.9001 38.4728 26.0605C39 26.3355 39.55 26.5876 40.1 26.8167C41.3375 27.2292 42.5291 27.8021 43.6291 28.4896C44.3853 28.9708 45.0041 29.6125 45.4395 30.3917C45.8061 31.1251 45.9895 31.9271 45.9666 32.7521C45.9895 33.8292 45.6687 34.9062 45.0728 35.8C44.4312 36.7166 43.5375 37.4271 42.5062 37.8396C41.3833 38.3208 40.0083 38.573 38.3583 38.573C37.3042 38.573 36.2729 38.4813 35.2417 38.2751C34.4396 38.1376 33.6376 37.8855 32.9042 37.5417C32.7438 37.4501 32.6292 37.2896 32.6521 37.1063V33.1188C32.6521 33.0501 32.675 32.9585 32.7437 32.9126C32.8125 32.8667 32.8812 32.8897 32.95 32.9355C33.8437 33.4626 34.7833 33.8292 35.7916 34.0583C36.6625 34.2875 37.5791 34.4021 38.4957 34.4021C39.3666 34.4021 39.9853 34.2875 40.3978 34.0812C40.7645 33.9208 41.0166 33.5312 41.0166 33.1187C41.0166 32.7979 40.8332 32.5 40.4666 32.2021C40.1 31.9042 39.3437 31.5605 38.2207 31.125C37.052 30.7125 35.9749 30.1625 34.9666 29.475C34.2562 28.9708 33.6603 28.3062 33.225 27.5271C32.8583 26.7937 32.675 25.9917 32.6978 25.1896C32.6978 24.2042 32.9728 23.2646 33.477 22.4167C34.0499 21.5001 34.8978 20.7667 35.8832 20.3083C36.9603 19.7583 38.3124 19.5062 39.9395 19.5062C40.8791 19.5062 41.8416 19.575 42.7811 19.7125C43.4686 19.8041 44.1332 19.9875 44.752 20.2396C44.8436 20.2625 44.9353 20.3542 44.9811 20.4458C45.004 20.5375 45.027 20.6292 45.027 20.7208V24.4562C45.027 24.5479 44.9811 24.6396 44.9124 24.6854C44.7062 24.7312 44.5916 24.7312 44.5 24.6854Z" fill="#00A9FF"/>
</svg>
