<svg width="128" height="118" viewBox="0 0 128 118" fill="none" xmlns="http://www.w3.org/2000/svg">
<path d="M47.6587 66.5933V117.619H0.539555V77.3354C0.539555 55.5256 3.14372 39.7378 8.35205 29.9722C15.188 16.9513 26.0116 7.10433 40.8228 0.431152L51.5649 17.521C42.6131 21.2645 36.0213 26.8797 31.7896 34.3667C27.5578 41.6909 25.1978 52.4331 24.7095 66.5933H47.6587ZM123.342 66.5933V117.619H76.2231V77.3354C76.2231 55.5256 78.8273 39.7378 84.0356 29.9722C90.8716 16.9513 101.695 7.10433 116.506 0.431152L127.249 17.521C118.297 21.2645 111.705 26.8797 107.473 34.3667C103.241 41.6909 100.881 52.4331 100.393 66.5933H123.342Z" fill="#29B3F1"/>
</svg>
