<svg width="41" height="40" viewBox="0 0 41 40" fill="none" xmlns="http://www.w3.org/2000/svg">
<g clip-path="url(#clip0_70_677)">
<path d="M2.28067 7.48285C2.63301 8.87582 3.35575 10.1493 4.37145 11.1649L5.30137 12.0829L12.5954 4.78926L11.6656 3.87121C10.6491 2.85559 9.37637 2.13293 7.98333 1.78059L0.98684 0.0118397C0.853246 -0.0217541 0.71184 0.0173084 0.614183 0.114183C0.517308 0.21184 0.478246 0.353246 0.51184 0.48684L2.28067 7.48285Z" fill="white"/>
<path d="M10.5187 17.2329L17.8121 9.93994L14.2634 6.43604L6.96948 13.7295L10.5187 17.2329Z" fill="white"/>
<path d="M23.2635 30.0587L30.5558 22.7665L34.9269 27.1375L27.6346 34.4298L23.2635 30.0587Z" fill="white"/>
<path d="M36.5916 28.7959L29.2976 36.0894L31.6981 38.49C32.6724 39.4634 33.9678 40.0001 35.3452 40.0001C36.7226 40.0001 38.018 39.4634 38.9923 38.49C41.0026 36.479 41.0026 33.2071 38.9923 31.1963L36.5916 28.7959Z" fill="white"/>
<path d="M18.5433 21.4756C19.001 21.018 19.743 21.018 20.2006 21.4756L24.2373 25.5121L26.0138 23.7358L23.7096 21.4318C23.2519 20.9742 23.2519 20.2323 23.7096 19.7745C24.1673 19.317 24.9093 19.3168 25.367 19.7745L27.6712 22.0785L29.4789 20.2709L25.4422 16.2344C24.9845 15.7768 24.9845 15.0348 25.4422 14.5771C25.8998 14.1195 26.6419 14.1194 27.0995 14.5771L31.1363 18.6137L32.9441 16.806L30.6398 14.502C30.1821 14.0445 30.1821 13.3025 30.6398 12.8448C31.0975 12.3872 31.8395 12.387 32.2972 12.8448L34.6014 15.1488L36.4091 13.3411L32.3724 9.30453C31.9147 8.84695 31.9147 8.10492 32.3724 7.64727C32.8302 7.18961 33.5722 7.18961 34.0298 7.64727L38.0665 11.6838L39.7243 10.0234C40.2245 9.52328 40.4999 8.8582 40.4999 8.15086C40.4999 7.44352 40.2244 6.77859 39.7243 6.27836L34.2211 0.775703C33.7209 0.275469 33.0559 0 32.3485 0C31.6412 0 30.9761 0.275391 30.4759 0.775625L1.27563 29.9766C0.775469 30.4766 0.5 31.1417 0.5 31.849C0.5 32.5563 0.775469 33.2213 1.27563 33.7215L6.77891 39.2243C7.27906 39.7245 7.94406 40 8.65148 40C9.35891 40 10.0239 39.7245 10.5241 39.2244L12.1845 37.5641L9.88039 35.2602C9.42274 34.8026 9.42274 34.0605 9.88039 33.6029C10.338 33.1453 11.0801 33.1453 11.5377 33.6029L13.8419 35.9069L15.6496 34.0992L11.6129 30.0628C11.1552 29.6052 11.1552 28.8632 11.6129 28.4055C12.0705 27.948 12.8126 27.948 13.2702 28.4055L17.307 32.442L19.1148 30.6343L16.8105 28.3303C16.3529 27.8727 16.3529 27.1308 16.8105 26.673C17.2683 26.2155 18.0103 26.2153 18.468 26.673L20.7722 28.977L22.5799 27.1694L18.5432 23.1329C18.0855 22.6753 18.0855 21.9333 18.5433 21.4756Z" fill="white"/>
</g>
<defs>
<clipPath id="clip0_70_677">
<rect width="40" height="40" fill="white" transform="translate(0.5)"/>
</clipPath>
</defs>
</svg>
