<svg width="63" height="62" viewBox="0 0 63 62" fill="none" xmlns="http://www.w3.org/2000/svg">
<path d="M29.6836 40.082H27.8672C26.8632 40.082 26.0508 39.2696 26.0508 38.2656C26.0508 37.2617 26.8632 36.4492 27.8672 36.4492H31.5C32.5022 36.4492 33.3164 35.635 33.3164 34.6328C33.3164 33.6307 32.5022 32.8164 31.5 32.8164C28.4952 32.8164 26.0508 30.372 26.0508 27.3672C26.0508 25.0022 27.5739 23.0049 29.6836 22.2526V14.8359C21.5322 15.753 15.1523 22.6074 15.1523 31C15.1523 39.3927 21.5322 46.2471 29.6836 47.1641V40.082Z" fill="white"/>
<path d="M47.8477 31C47.8477 22.6074 41.4678 15.753 33.3164 14.8359V21.918H35.1328C36.1368 21.918 36.9492 22.7304 36.9492 23.7344C36.9492 24.7384 36.1368 25.5508 35.1328 25.5508H31.5C30.4978 25.5508 29.6836 26.365 29.6836 27.3672C29.6836 28.3694 30.4978 29.1836 31.5 29.1836C34.5048 29.1836 36.9492 31.628 36.9492 34.6328C36.9492 36.9978 35.4261 38.9951 33.3164 39.7475V47.1641C41.4678 46.2471 47.8477 39.3927 47.8477 31Z" fill="white"/>
<path d="M27.8672 0C26.8632 0 26.0508 0.812418 26.0508 1.81641V9.08203C26.0508 10.086 26.8632 10.8984 27.8672 10.8984H35.1328C36.1368 10.8984 36.9492 10.086 36.9492 9.08203V1.81641C36.9492 0.812418 36.1368 0 35.1328 0H27.8672Z" fill="white"/>
<path d="M26.0508 52.918V60.1836C26.0508 61.1876 26.8632 62 27.8672 62H35.1328C36.1368 62 36.9492 61.1876 36.9492 60.1836V52.918C36.9492 51.914 36.1368 51.1016 35.1328 51.1016H27.8672C26.8632 51.1016 26.0508 51.914 26.0508 52.918Z" fill="white"/>
<path d="M5.94922 36.4492C8.95874 36.4492 11.3984 34.0095 11.3984 31C11.3984 27.9905 8.95874 25.5508 5.94922 25.5508C2.9397 25.5508 0.5 27.9905 0.5 31C0.5 34.0095 2.9397 36.4492 5.94922 36.4492Z" fill="white"/>
<path d="M57.0508 36.4492C60.0603 36.4492 62.5 34.0095 62.5 31C62.5 27.9905 60.0603 25.5508 57.0508 25.5508C54.0413 25.5508 51.6016 27.9905 51.6016 31C51.6016 34.0095 54.0413 36.4492 57.0508 36.4492Z" fill="white"/>
<path d="M55.2607 21.7422C56.167 21.3111 56.5538 20.2274 56.1227 19.3228C53.4336 13.6625 48.8376 9.0665 43.1773 6.37737C42.278 5.94991 41.1853 6.33305 40.7579 7.23944C40.3268 8.14413 40.7135 9.22792 41.6199 9.65889C46.5246 11.9897 50.5104 15.9755 52.8412 20.8802C53.2724 21.7896 54.3596 22.1703 55.2607 21.7422V21.7422Z" fill="white"/>
<path d="M43.1773 55.6224C48.8376 52.9333 53.4336 48.3373 56.1227 42.677C56.5538 41.7723 56.167 40.6885 55.2607 40.2576C54.3578 39.8265 53.2722 40.215 52.8412 41.1196C50.5104 46.0243 46.5246 50.0101 41.6199 52.3409C40.7135 52.772 40.3268 53.8558 40.7579 54.7604C41.1891 55.6698 42.2763 56.0505 43.1773 55.6224V55.6224Z" fill="white"/>
<path d="M7.73955 40.2575C6.83317 40.6886 6.44639 41.7724 6.87749 42.677C9.56662 48.3372 14.1626 52.9332 19.8229 55.6224C20.7249 56.0509 21.8116 55.6686 22.2423 54.7603C22.6734 53.8556 22.2867 52.7718 21.3803 52.3408C16.4756 50.01 12.4898 46.0242 10.159 41.1196C9.72985 40.215 8.64425 39.8265 7.73955 40.2575V40.2575Z" fill="white"/>
<path d="M6.87749 19.3228C6.44639 20.2275 6.83317 21.3113 7.73955 21.7422C8.64158 22.1708 9.72828 21.7885 10.159 20.8802C12.4898 15.9755 16.4756 11.9897 21.3803 9.65889C22.2867 9.2278 22.6734 8.14401 22.2423 7.23944C21.8131 6.33305 20.724 5.94991 19.8229 6.37737C14.1626 9.0665 9.56662 13.6625 6.87749 19.3228V19.3228Z" fill="white"/>
</svg>
