<?xml version="1.0" encoding="UTF-8"?>
<svg width="752pt" height="752pt" version="1.1" viewBox="0 0 752 752" xmlns="http://www.w3.org/2000/svg">
 <path d="m376 155.79c-121.23 0-220.21 98.98-220.21 220.21 0 121.24 98.98 220.21 220.21 220.21 121.24 0 220.21-98.977 220.21-220.21 0-121.23-98.977-220.21-220.21-220.21zm195.59 284.15h-106.55c2.3672-20.363 3.7891-41.676 3.7891-63.934s-1.4219-43.57-3.7891-63.934h106.55c6.6289 20.363 10.418 41.676 10.418 63.934s-3.7891 43.57-10.418 63.934zm-195.59 142.07c-29.363 0-60.145-49.254-72.93-127.87h145.39c-12.316 78.617-43.098 127.87-72.461 127.87zm-74.824-142.07c-2.3672-19.891-3.7891-41.203-3.7891-63.934s1.4219-44.043 3.7891-63.934h149.65c2.3672 19.891 3.7891 41.203 3.7891 63.934s-1.4219 44.043-3.7891 63.934zm74.824-269.94c29.363 0 60.145 49.254 72.93 127.87h-145.86c12.785-78.613 43.57-127.87 72.93-127.87zm190.38 127.87h-103.24c-8.9961-56.355-26.992-101.35-50.199-124.55 69.617 12.785 127.39 60.617 153.44 124.55zm-227.32-124.55c-23.207 23.207-41.203 68.195-50.199 124.55h-103.24c26.047-63.934 83.824-111.77 153.44-124.55zm-158.65 138.76h106.55c-2.3672 20.363-3.7891 41.676-3.7891 63.934s1.4219 43.57 3.7891 63.934h-106.55c-6.6328-20.363-10.422-41.676-10.422-63.934s3.7891-43.566 10.422-63.934zm5.207 142.07h103.71c8.9961 56.355 26.992 101.35 50.199 124.55-70.09-12.785-127.87-60.617-153.91-124.55zm227.32 124.55c23.207-23.207 41.203-68.195 50.199-124.55h103.71c-26.52 63.93-84.297 111.76-153.91 124.55z"/>
</svg>
