<svg width="56" height="54" viewBox="0 0 56 54" fill="none" xmlns="http://www.w3.org/2000/svg">
<path d="M2.79248 10.5971C2.79248 6.04084 6.48613 2.34717 11.0425 2.34717H44.9592C49.5155 2.34717 53.2091 6.04084 53.2091 10.5971V43.1388C53.2091 47.6951 49.5155 51.3888 44.9591 51.3888H11.0425C6.48613 51.3888 2.79248 47.6951 2.79248 43.1388V10.5971Z" fill="#2E001E"/>
<path d="M8.75 0.0556641C4.19365 0.0556641 0.5 3.74932 0.5 8.30569V45.4306C0.5 49.987 4.19365 53.6806 8.75 53.6806H47.25C51.8064 53.6806 55.5 49.987 55.5 45.4306V8.30564C55.5 3.74931 51.8064 0.0556641 47.25 0.0556641H8.75ZM2.79167 10.5973C2.79167 6.04101 6.48532 2.34733 11.0417 2.34733H44.9583C49.5147 2.34733 53.2083 6.04096 53.2083 10.5973V43.139C53.2083 47.6953 49.5147 51.389 44.9583 51.389H11.0417C6.48532 51.389 2.79167 47.6953 2.79167 43.139V10.5973Z" fill="#FF26BE"/>
<path d="M40.4439 22.5826C40.1002 22.4222 39.6647 22.3534 39.1147 22.3534C36.2272 22.3534 34.3022 24.5764 34.3022 28.2659C34.3022 32.4826 36.273 34.1784 38.8397 34.1784C39.3897 34.1784 39.9855 34.1097 40.421 33.9263V22.5826H40.4439ZM30.1772 28.4492C30.1772 23.1097 33.6147 18.9389 39.2522 18.9389C39.7335 18.9389 39.9855 18.9389 40.4439 18.9847V13.0264C40.4439 12.8889 40.5585 12.7972 40.673 12.7972H44.3627C44.546 12.7972 44.5918 12.866 44.5918 12.9805V33.9263C44.5918 34.5451 44.5918 35.3242 44.7064 36.1722C44.7064 36.3326 44.7064 36.3555 44.5689 36.4242C42.6439 37.3409 40.6272 37.7534 38.7022 37.7534C33.7293 37.7534 30.1772 34.6826 30.1772 28.4492ZM22.3626 24.7368L28.7793 37.1805C28.8939 37.3638 28.8251 37.5472 28.6418 37.5472H24.6543C24.4022 37.5472 24.2876 37.4784 24.173 37.2492C22.7064 34.2242 21.2167 31.0847 19.6814 27.8305H19.6355C18.2605 30.9014 16.748 34.2472 15.2814 37.2722C15.1667 37.4555 15.0522 37.5242 14.8689 37.5242H11.0647C10.8355 37.5242 10.8126 37.3409 10.9272 37.2034L17.2064 25.1264L11.1334 13.118C10.9959 12.9347 11.1334 12.7743 11.2938 12.7743H15.2355C15.4647 12.7743 15.5792 12.8201 15.648 13.0264C17.0917 16.0743 18.5584 19.0764 19.9334 22.1472H19.9792C21.3084 19.1222 22.7751 16.0743 24.173 13.0722C24.2876 12.8889 24.3564 12.7743 24.5855 12.7743H28.2751C28.4584 12.7743 28.5272 12.9118 28.4126 13.118L22.3626 24.7368Z" fill="#FFD9F2"/>
</svg>
